<?xml version="1.0" encoding="UTF-8"?>
<svg id="Layer_1" data-name="Layer 1" xmlns="http://www.w3.org/2000/svg" viewBox="0 0 902.99 1163.58">
  <path d="M355.99,330.61c3.27-1.89,6.88,3.17,7.12,6.55,1.14,16.54,5.47,31.55,10.33,47.12l4.77,23.58c-5.6,3.51-16.06,3.39-21.36,1.56-2.27-.79-3.12-6.04-3.67-8.63l-3.04-14.18c-6.15-1.38-8.24,3.69-19.22,4.52l-18.22,1.39c-9.33.71-18.15,1.33-27.4-.68l-19.62-4.25c-3.72-.81-7.74-8.4-9.59-11.71-3.33-5.97-3.65-11.27-4.97-17.59-.93-4.44-1.41-7.42-.95-11.99.97-9.5-.56-19.42,1.19-28.83,1.91-10.32,5.35-21.34,11.52-29.62l8.27-11.08c7.79-10.44,40.9-38.47,51.74-39.54,14.61-1.45,30.56,4.33,41.71,13.07,5.6,4.39-.07,11.82-3.66,14.21l-5.91,3.92-4.84-6.12-16.04.53c-16.07.54-32.89,6.97-41.07,21.55-11.42,20.35-10.56,41.29-10.94,63.95-.14,8.28.16,14.6,6.47,20.92s16.17,12.81,23.68,11.92l21.39-2.52,13.27-3.63-3.59-25.01-18.29-1.11c-2.04-.12-5.64-.81-7.5-1.66-1.6-.73-2.88-4.58-2.03-7.01l22.15-2.24c6.58-.67,11.74-3.59,18.3-7.4Z"/>
  <path d="M659.46,490.49l-7.64,11.48-11.21,11.95-4.1,3.32-4.74,10.14c-2.84-2.17-4.57-4.33-5.83-6.97-7.92-1.03-11.4-5.66-14.53-12.66l-10.19-22.8-13.97-26.51-1.11,34.44,3.73,33.56c2.23,20.01,4.48,39.61-.75,59.76-2.66.55-6.32-2.23-8.54-3.47l-7.9-.25c-6.91-.22-8.28-32.63-8.31-48.19l-.07-30.92c-.05-25.23-.36-49.33,4.82-74.1,3.55,1.21,5.34,4.12,6.27,6.85l5.58-3.92c1.57-1.1,6.23,2.45,7.31,4.55l13.66,26.63,15.6,28.14,7.01,11.95,15.47-21.27,29.41-30.95c2.32-2.44,4.81-8.5,7.98-8.62,5.71-.23,3.49,5.79,3.48,8.57l-.28,79.18c-.05,13.93-.53,26.46,2.59,40.24.81,3.59.07,9.91-.57,12.63l-9.4-.79c-1.77-.15-4-.12-5.11-.7-3.62-1.9-5.26-29.95-6.23-43.62l-1.38-19.44-1.03-28.2Z"/>
  <path d="M698.18,770.15c-13.81-1.13-26.91,2.66-40.5,3.87l-16.81,1.49c-8.4.75-15.35.35-23.5-1.72-5.79-1.47-12.39-1.09-17.98-4.15-16.79-9.2-14.29-30.7-10.19-50.81l8.8-43.08c4.66-22.81,7.11-27.95,28.94-41.75,9.34-5.91,23.51-8.58,35.28-7.25,9.92,4.95,18.41,12.7,22.34,23.02l9.99,26.32-.05,14.98,4.59,21.75c3.08,14.6,8.01,28.18,3.57,43.87,6.77,7.17,16.22,8.01,21.23,19.7-.8,2.02-2.17,4.29-3.54,5.12s-6.35.7-7.75-.37l-14.43-10.99ZM673.62,752.96l-16.28-12.02c.49-1.98,1.45-4.57,2.49-5.78s5.45-.22,6.94.68l15.19,9.13c1.38-3.22,1.92-5.62,2.13-8.56-1.45-10.44-.84-19.64,1.15-29.82l-10.69-36.61c-2.94-10.08-16.09-21.27-19.04-33.01l-9.78,7.9c-13.41,10.83-23.32,23.38-28.19,40.1l-8.62,29.61c-3.44,11.8-4.04,35.39,4.47,38.29,5.92,2.02,12.06,4.83,18.03,4.88l30.88.28c3.26.03,8.91-3.74,11.32-5.09Z"/>
  <path d="M862.05,840.62c5.8,1.44,11.68,11.12,7.27,20.22-3.9,8.04-5.71,16.62-5.42,25.44.42,12.76-2.84,23.98-6,36.07l-5.15,19.78-2.45,8.49-5.83,14.23c-.53,1.29-1.7,4.12-2.87,4.47-3.17.95-9.82-6.14-13.83-15.19-6.24-14.09-10.91-27.25-13.94-43.13-3.43,1.08-5.38,4.17-5.8,8-.55,4.96-3.19,8.74-5.26,12.99l-8.4,17.26-6.94,13.7c-2.23,4.39-5.27,8.79-8.95,11.97-10.8-6.31-13.35-15.81-18.03-25.58-9.42-19.67-16.2-39.29-18.62-61.13l-4.02-36.3c-.38-3.39,1.44-10.04,2.5-12.97.43-1.19,4.76-1.11,5.27.05l2.24,5.16c3.3,7.64,7.56,14.69,10.53,22.85l6.45,17.71,5.05,12.89,8.42,20.61,5.5,15.5,5.58-8.66,13.57-18.46c4.16-5.67,7.3-11.28,13.62-15.54,1.74-1.14,5.42,3.87,5.28,6-.27,4.01,1.82,5.3,3.93,8.05,5.5,7.16,8.89,16.56,12,24.85l2.31.06c.43.01.32-1.51.37-2.13l1.39-16.96,2.62-31.68,6.62-35.8c.99-2.68,7.5-3.7,11.02-2.82Z"/>
  <path d="M791.19,789.01c-1.06,3.62-9.11,1.02-12.81-18.65-.67-3.57.85-6.5,1.76-10.03,1.54-5.99-.32-13.73-.41-20.08l-.52-37.43-.98-27.02-.91-32.76c-.04-1.61,1.09-5.46,1.87-6.86,2.01-3.63,11.22,1.25,14.34-4.53,31.41-5.85,50.65-6.02,63.78,24.17,3.36,7.72,3.1,14.47.62,22.15-1.52,4.72-3.16,10.31-7.95,13.18l-26.37,15.76c7.36,2.21,13.21,3.74,19.26,7.07,10,5.5,20.5,7.71,31.12,11.7l24.99,9.38c7.25,2.72,3.31,14.93-1.26,25.42-9.29.36-4.08-8.89-15.22-13.85l-13.12-5.84c-11.73-5.22-22.65-9.1-34.15-15.2-3.57-1.89-11.19-1.67-14.14-4.97-3.7-4.13-7.49-5.52-12.14-4.22-10.58,2.95-4.4,12.9-5.82,30.16l-2.11,25.63-2.21,9.36-3.69,3.56M821.15,691.89c10.51-7.29,19.82-14.86,23.81-27.83l-2.41-14.09c-4.37-2.92-10.34-6.47-15.53-7.16l-17.46-2.33-8.67,2.28.21,38.78.91,23.61,19.14-13.27Z"/>
  <path d="M76.9,162.95l-3.74-21.36c-1.81-10.3-28.1-9.09-32.19,2.74-1.79,5.17-.9,12.58-2.12,18.27l-5.06,23.72c-8.5.79-10.29-8.41-9.29-19.33l2.85-31.09,5.95-48.11,3.14-29.69.69-32.15c.04-1.8,2.51-5.09,3.96-5.87,5.4-2.93,18.69,14.99,23.35,24.96l18.92,40.45,8.5,21.21,9.86,27.4,6.71,19.62c2.49.79,6.41,2.5,7.39,4.26,1.95,3.52.28,17.54-6.9,22.2l-4.73,6.18c-6.66-6.01-12.95-8.76-21.96-8.63-2.56-4.17-4.37-9.24-5.33-14.77ZM44.61,125.7l23.69-8.81c-3.57-15.02-8.05-28.88-13.02-43.46-.53-1.55-4.83-2.8-4.56-1.56l-2.22,20.41-1.89,16.23-2,17.18Z"/>
  <path d="M507.06,398.01c-.32,1.54-2.23,4.71-3.75,5.15-1.9.54-5.11-1.81-5.47-3.92l-4.07-24.25-7.64-50.96-13.37,2.09c-7.87,1.23-18.16,4.73-23.96,9.7-5.35,6.11-2.51,16.28-2.11,23.22l2.18,37.7c.11,1.92-.53,6.47-2.17,5.89l-9.06-3.19c-3.48-1.23-8.58-8.04-9.2-11.8l-2.81-17.01c-1.24-7.49-1.52-14.08-1.38-21.69l.72-38.63c.26-14.15,2.8-28.04,2.05-42.35l-.95-18.02c-.11-2.16-.34-6.6.9-8.03s4.73-2.9,6.56-3.35c4.29,5.46,7.1,9.95,8.58,15.79,3.01,7.35,3.63,14.44,1.89,22.29,8.02,16.66.14,35.64,3.62,35.89l6.41.46c6.88.49,13.58.79,19.59-2.27,3.79-1.92,7.14-2.16,12.11-.44l-2.33-60.18,2-4.23c.67-1.43,9-2.53,12.73,5.02,6.24,12.63,11.9,32.98,11.02,45.34l-1.81,25.39c-1.22,17.12-3.84,32.73.04,49.89l2.06,15.03-2.38,11.46Z"/>
  <path d="M180.74,736.49c-5.45.89-6.72-5.38-8.18-8.08l-8.69-16.05-27.27-49.27-2.77,27.02-4.36,32.01c-1.62,11.92,1.79,18.24-2.23,20.12-1.57.74-5.03-.29-7.15-1.53l-4.88,5.64c-3.39-3.77-5.41-8.2-5.62-13.34l-2.03-48.92.19-23.66-2.04-40.09-.97-13.55,10.45-7.42,3.51,7.45,5.64,1.7,8.59,23.52,8.66,16.66,25.69,46.72,3.06-19.74.26-23.44,4.6-32.68c.84-6,8.17-17.93,12.94-19.66,5.08,3.57,2.71,8.75,2.5,13.19l-3.63,78.11c-.64,13.83.11,26.29,1.49,40.08-1.37,1.13-5.75,4.33-7.76,5.21Z"/>
  <path d="M468.5,719.33c1.01,12.1,4.6,25.26-.65,36.2l-5.43,11.34c-.96,2-6.37,3.25-8.41,2.46-5.7-2.21-10.21-15.29-11.09-22.86l-5.41-46.3-2.07-26.98c-1.03-13.43.02-26.02-2.76-39.32-1.36-6.53.5-14.69,6.91-17.32,14.99,3.58,29.5,5.87,44.77,7.07,7.99.63,15.76,2.94,22.32,6.99,8.53,5.26,10.23,13.8,12.36,22.72,2.26,9.49,3.26,19.31-5.29,26.05l-17.16,13.54-18.22,15.26c-3.29,2.75-10.44,4.33-9.88,11.16ZM500.99,645.58l-6.59-5.38-11.28,1.96-30.98-6.47c8.01,21.02,12.46,41.35,14.6,61.6,18.48-12.6,36.17-30.1,34.26-51.71Z"/>
  <path d="M438.45,152.3c-3.18-.11-9.2-1.15-11.93-.61l-7.48,1.49c-1.89.38-5.07-4.15-4.83-6.11l2.47-20.6,5.61-43.71,3.98-25.62,3.84-19.82c1.86-9.59,2.74-17.37,5.79-27.04,1.57-4.96,10.19-13.75,15.53-8.85,7.93,7.27,14.93,14.03,23.74,20.02,7.67,5.22,15.97,11.48,20.54,19.25l9.71,16.5c4.48,7.61,8.83,19.74,3.89,28.17l-13.75,23.48c-7.34,12.53-16.55,24.88-29.52,31.82l-27.6,11.62ZM474.88,99.74l2.67-18.24c1.08-7.38,1.43-16.19-.28-23.47l-29.52-30.47-6.09,18.33c-4.86,14.64-8.15,30.04-9.51,45.65l-1.42,16.32-3.74,30.24c22.65-8.27,44.12-12.7,47.88-38.37Z"/>
  <path d="M346.01,581.64l-5.52,8.38c-2.72-1.66-5.23-3.6-6.78-6.04-2.86-4.51-6.63-5.95-10.78-8.88l-11.97-8.44-23.8-21.11c-4.5-3.99-7.51-6.91-13.16-10.47l-6.41,17.68-5.98,28.48-1.25,4.43c-.35,1.24-4.58,1.78-5.67.79-2.95-2.68-4.23-10.26-3.28-14.79l5.21-24.8,3.71-21.88,4.31-33.25,3.56-43.87c.39-4.8,1.7-10.47,4.06-13.69l4.36.15c1.47.05,3.14-7.16,6.83-6.73,1.41.17,3.45,3.57,3.33,5.01l-1.49,17.97-1.45,21.61-.24,9.14,18.57-10.16,16.98-12.56,27.15-22.3c1.5-1.23,6.18,2.58,6.65,4.43.57,2.21-.44,5.65-2.48,7.73l-10.38,10.61-10.98,9.38-26.23,22.65-10.21,8.75,11.1,17.39,12.93,20.73c10.13,16.25,27.52,23.24,29.32,43.64Z"/>
  <path d="M354.08,748.46c-15.92,6.15-24.18,4.74-30.83,7.98-10.52,5.12-19.76,6.22-31.33,6.64-12.36.45-25.97.52-35.03-10.07-3.68-4.3-6.47-12.47-6.97-18.29l-2.09-24.19-1.48-28.43c-2.01-38.58,1.73-34.43,25.18-54.89,9.59-8.37,20.32-15.48,33.33-17.21,6.54-.87,12.77,4.63,15.78,10.09l13.27,24.04,25.62,56.83,7.13,18.75,3.24,12.42c.64,2.47,1.73,9.55-.76,10.51l-15.06,5.82ZM344.54,737.91l13.75-3.67c1.5-4.31-.67-8.7-2.68-12.69l-10.28-20.45-8.26-21.52-15.63-30.73-7.13-12.13-8.02-12.82-18.82,11.62c-22.14,13.67-23.99,25.39-21.02,50.5l3.3,27.84,4.14,25.26c.7,4.3,2.28,9.45,5.18,12.43,10.64.37,20.35-.51,30.29-3.41l35.18-10.23Z"/>
  <path d="M257.38,130.92l2.74,29.04c-3.45,4.2-10.34,7.99-15.51,8.75l-17.5,2.58c-4.11.61-11.72-1.53-15.93-.87-8.21,1.29-13.69,1.25-21.55-.9-2.53-.69-8.51-1.08-8.94-5.65l-4.3-45.19.05-34.99-.57-46.11.63-16.83.32-3.89c.07-.89,2.8-2.54,3.86-2.5l18.47.66c9.26.33,15.98,3.45,23.6,7.98,16.7,9.93,22.99,26.81,13.06,42.64-5.61,8.94-13.79,17.87-22.41,24.48l-6.79,5.21c8.93,2.38,14.85,4.5,22.28,7.82l15.62,6.99c5.94,2.66,10.29,1.64,11.35,9.46l1.53,11.3ZM218.56,45.54c-3.52-7.08-8.44-10.48-16.32-12.31l-13.69-3.18c-1.73,18.28-1.14,36.56-.01,55,.23,3.71-.38,6.24,1.71,9.92,16.79-15.77,37.78-30.36,28.31-49.44ZM244.54,150.78c-3.03-23.88,5.23-29.82-9.76-35.61l-22.12-8.54c-6.14-2.37-13.47-.36-20.88.93l-.07,20.12,1.4,21.94c.35,5.46,6.66,8.78,11.77,9.7,17.34,3.12,41.47,5.66,39.67-8.54Z"/>
  <path d="M420.65,816.95c.01-1.58,2.16-4.58,3.25-5.38s4.77,1.32,5.1,2.96c2.02,10.07,4.11,23.03,3.25,33.55-.4,4.88-.66,8.55-.08,13l3.65,27.85,3.53,21.63c2.86,17.51,25.31,23.13,28.07,18.23l11.62-20.68c5.37-9.55,9.92-17.54,11.08-29.01l3.6-16.59,2.33-25.87.58-14.26-3.08-15.42c3.82-3.74,10.31-9.36,15.44-9.01,7.16.48,7.1,9.25,7.59,13.75l2.29,21.11c1.79,16.53,1.02,32.23-1.07,48.87l-7.35,22.47c-1.72,5.26-1.56,10.07-6.97,13.1-2.63,7.08-8.07,12.36-14.81,15.97l-15.92,8.52c-4.61,2.47-15.61,1.59-20.4-.19-20.51-7.64-27.18-28.36-29.29-49.51l-2.82-28.29.43-46.8Z"/>
  <path d="M19.03,379.26l31.88-.08,13.39-.17,11.1-.05c1.59,0,4.73,1.87,5.21,3.23.57,1.58-1.43,4.99-2.99,5.82-8.06,4.28-15.84.29-23.86.66l-25.47,1.17-18.31.39c-2.84.06-7.71-1.16-8.91-3.26-1.66-2.89-.96-6.43-.78-10.05l.69-13.81,6.85-69.4c.77-7.76,1.26-15.1.28-22.87-1.01-8.08-.63-15.68,2-23.56l30.52-9.28,37.43-12.96c4.12-1.43,10.61-3.49,13.48.36-.29,2.49-2.81,7.23-3.64,9.38l-1.32,11.45c-.17,1.45-2.9,4.33-4.24,4.81s-3.32-1.25-5.1-3.98c-11.8,3.62-22.6,10.33-33.77,16.86l-13.11,6.15-4.32,25.13-.1,16.62,22.15-.9c2.28-.09,5.28.35,6.43,2,4.46,6.41-13.68,11.05-29.81,8.96l-1.28,16.91-2.83,23.07-1.58,17.42Z"/>
  <path d="M580.34,836.61l-6.48-20.49c-.46-1.47.55-4.64,1.43-5.81,1.03-1.36,6.51-.59,7.16.99l16.46,40.22,8.46,21.09,13.95,35.9,12.15-37.47,17.45-54.55c2.21-2.54,3.66-4.71,5.9-8.57,1.49-.3,6.75.81,8.75,2.26,2.39,1.73,3.62,7.92,3.64,10.85l.13,25.77c.06,11.13-3.21,22.35-6.11,33.13-3.25,12.1-8.58,23.71-14.19,34.62l-12.93,25.15c-14.41,1.63-18.75-4.93-23.99-18.03l-19.45-48.63-12.32-36.43Z"/>
  <path d="M161.05,316.1c2.11,13.69,2.23,25.22,2.02,38.14l2.64,17.11c.46,3,.44,6.6-.84,9.28-.94,1.96-5.03,3.8-8.27,3.06-5.25-11.56-6.79-25.19-7.11-37.96l-.6-23.81-.85-45.06-.49-25.69-7.17-2.49c-1.52-.53-.61-6.4.98-6.7,5.63-1.06,10.78-5.53,14.11-10.34l19.28-7.45,35.2-9.8c5-7.09,12.19-9.92,20.82-11.93,9.19,4.71,14,12.91,12.28,24.97-1.19,1.59-4.83,2.12-7.82,3.08l-45.04,14.45-24.37,8,1.03,12.01c-1.54,4.14-4.74,11.81-2.23,15.33l9.61,13.45,12.7-2.51c2.08-.41,4.11,3.36,4.05,5.66l-.45,16.43c-.23,8.27-15.22-2.25-29.49,2.75Z"/>
  <path d="M576.62,1136.55c-8.97,1.61-17.15.76-24.72-2.26-7.88,1.56-15.12,2.15-23.4.95l-15.79,4.87c-4.25,1.31-8.62,2.06-12.78.35,1.61-10.66,7.75-17.89,12.34-26.43l16.63-30.93,21.39-34.23c4.79-7.66,8.2-16.11,11.64-24.42l7.99-19.35c-8.98,3.28-17.46,1.42-26.4,1.4-9.6-.02-19.45,2.9-29.15.44-2.72-.69-5.67-4.2-5.28-6.21.61-3.15,4.32-4.94,8.5-4.81.39-.33.46-.63-.06-.74l-4.58-.9,18.3-1.89c11.24-1.16,22.68-3.22,33.15-6.75,7.13-2.4,21.06-12.29,27.24-1.55,1.05,1.83.37,5.5-.48,8.34l-3.63,12.15c-2.33,7.78-5.67,14.08-11.5,19.88l-5.44,14.02-8.42,12.82c-2.88,8.59-6.79,14.5-12.13,21.82l-6.11,12.99-10.48,19.3-4.89,10.25,24.57,6.68,15.36,1.47,26.89,1.28c7.93.38,13.83,4.4,15.14,12.98-11.42,4.32-22.71,4.28-33.89-1.53Z"/>
  <path d="M400.01,1067.2c-.32,2.55-2.35,5.61-3.64,7.62l-12.4,35.35-4.84,17.89-4.05,24.27c-.61,3.64.02,9.74-5.25,11.2-2.44.67-5.94-4.87-5.89-7.96.34-22.53,5.65-43.26,14.36-64.67-3.75-10.02-9.09-19.22-15.09-28.28-6.87-10.39-10.62-21.17-15.27-32.64l-15.08-37.25c5.19-5.02-4.03-11.86,4.63-16.06l8.4,9.11c4.52,1.33,7.56,2.79,10.04,6.85l14.75,24.11c4.35,7.11,2.72,20.96,20.96,33.97l8.38-19.41,13.3-38.26c.49-1.42,3.69-3.39,5.17-3.71,1.47-.31,4.68,3.32,4.22,4.89l-7.55,25.69-5.8,17.98c-3.2,9.92-8,18.46-9.36,29.3Z"/>
  <path d="M180.23,916.06l-12.01,14.75-18.61-7.12-10.92-7.31-8.7-8.94c-2.06-2.11-5.71-4.88-5.67-7.68.02-1.74,4.53-4.38,6.23-3.99,4.36,1,14.82,11.61,38.98,4.95,6.82-6.3,10.96-13.48,13.51-22.98-1.59-2.52-4.71-6.21-7.01-7.12-8.11-3.2-10.63-9.33-13.98-16.14-7.47-15.18-10.61-29.82-8.51-46.67.7-5.6.23-10.74,4.46-14.38,4.52-3.89,9.4-2.63,15.16-2.82,15.31-.51,28.89.98,42.69,8.98,2.2,1.27,8.2,2.24,5.9,7.56-2.08,4.79-10.12,10.61-15.26,11.6-3.59-5.35-6.51-6.12-12.15-6.86l-19.26-2.54c-4.25,15.41,1.77,27.79,8.43,40.47l11.51,21.9c4.05,7.72,4.58,12.98,1.06,20.77-2.52,5.58-5.63,10.17-9.39,15.1l-6.45,8.46Z"/>
  <path d="M239.19,1090.7c-5.95-4.22-7.68-12.87-12.19-17.96l-9.06-10.21c-3.69-4.16-6.47-6.88-9.89-12.84l-33.31,41.73c-4.86,2.18-6.83,4.73-7.17,11.37-1.75.21-4.91.05-6.44-.58-1.77-.73-2.92-6.91-1.57-8.63l18.37-23.25,13.85-17.24,9.62-14.17-9.14-11.29-21.48-27.39-11.88-13.77c-5.35-6.2-9.6-13.43-8.09-22.14,5.25,1.68,10.77,3.54,14.27,3.75,7.71.45,7.09,5.56,10.74,9.32l13.26,13.65,24.87,33.4c10.1-14.92,19.61-29.83,34.34-40.56,2.58,0,3.57,5.42,1.87,7.69l-19.96,26.47-10.14,14.42c3.71,7.22,9.4,14.99,14.91,21.8l19.72,24.36c3.51,4.34,6.54,9.59,7.2,15.33-1.56,2.62-7.93,6.02-10.81,5.16l-11.87-8.41Z"/>
  <path d="M159.98,564.4l-17.76-5.21-13.61-3.71-8.12-13.15c-.79-1.27.39-5.6,1.49-6.5,5.61-4.61,14.35,11.71,22.27,12.86l18,2.6c3.25-5.19,5.9-11.8,7.77-18,7.69-25.54,10.56-51.39,14.89-77.79l5.47-20.1,3.41-14.06c1.26-5.19,12.82-2.95,14.71.61-1.64,2.01-3.99,5.89-3.81,7.97l1.64,19.3,1.31,15.5v25.78c0,10.6-.12,21.11-2.99,31.13l-3.48,12.13c-2.38,8.27-11.35,13.03-16.15,19.62-3.97,5.45-8.2,8.41-15.48,9.55l-9.57,1.49Z"/>
  <path d="M316.94,120.17l15.51-5.01,12.35-4.28c5.59-1.94,10.38-3.41,15.76-.5,1.75.94,4.1,2.49,4.89,3.71,1.16,1.79.8,4.96-.64,6.65-6.16,7.22-12.84,14.9-21.72,17.66-12.05,3.75-23.57-.73-32.44-7.41-9.9-7.45-14.41-15.67-17.24-27.45-3-12.46-5.12-24.11-2.75-37.28,6.06-33.71,21.81-52.88,55.09-62.43,7.17-2.06,17.83-1.13,25.29,3.42,5.47,3.33,1.33,16.05-1.57,17.65-1.66.91-5.74-1.27-7.71-2.12-7.78-3.38-17,.79-24.7,3.08-5.55,1.65-9.5,3.56-13.42,7.43l-7.18,7.08c-6.39,6.3-7.01,16.87-7.01,25.26v21.16c-.02,11.37,3.22,21.83,7.49,33.39Z"/>
  <path d="M73.66,565.77c-19.85,10.06-30.1,5.89-48.56,13.23-4.91,1.95-11.94-.18-12.29-6.03,4.98-5.88,13.68-8.27,21.71-8.3l-.79-29.06-1.18-27.26-1.42-22.9-1.47-24.5-2.24-27.96c-5.87,1.46-10.62.01-15.17-3.64l-3.46-2.77c-.97-.78,1.12-4.38,2.48-4.92,22.69-8.98,38.78-2.36,49.45-6.55,3.14-1.23,6.3-2.32,8.06-.77,2.78,2.44,2.7,6.7.55,8.94l-4.99,5.22-13.98.81-.56,11.07c-.95,18.79-.29,36.51,1.41,55.28l.37,29.62.49,20.73-1.94,15.51c11.93,4.05,18.7-5.68,24-1.61,1.1.85.84,5.18-.48,5.85Z"/>
  <path d="M480.49,566.41c1.57-.24,5.45,1.61,6.54,2.73,1.28,1.31,2,5.31,1.79,7.77l-24.09,3.94-22.78.61-11.05,1.06c-2.28.22-5.8.47-7.53,0s-3.13-4.42-3.57-6.26l-3.03-12.66c-2.03-8.48-.8-18.12-.59-27.02l1.1-47.45-.16-16.77c-.19-20.19-2.45-42.82,12.2-37.82l5.31,26.75c1.81,9.11,5.98,18.65,5.95,27.94l-.05,15.24,1.52,23.21-.98,16.85.07,24.12c6.73.85,12.97,1.87,18.82.96l20.54-3.2Z"/>
  <path d="M338.28,947.03l-3.28-6.89c-5.47-6.6-8.59-13.57-8.97-22.43l-3.16-75.29-2.28-21.81-19.02,1.54c-7.34.59-13.5,3-20.34-2.9,1.97-2.73,6.09-5.85,10.06-6.43l45.74-6.62,33.62-5.3c1.18-.19,3.93-.22,4.83.34s1.23,3.19,1.25,4.95l-20.01,5.66-14.55,4.38c3.06,7.36,3.11,14.06,2.82,21.77l-2.4,63.14.28,16.15,2.61,4.22c.69,1.12-2.14,4.22-1.98,5.61l1.89,15.5c.15,1.22-.64,3.85-1.25,4.82-.74,1.17-5.25.85-5.85-.41Z"/>
</svg>