<?xml version="1.0" encoding="UTF-8"?>
<svg id="Layer_1" data-name="Layer 1" xmlns="http://www.w3.org/2000/svg" viewBox="0 0 2267.09 2428.9">
  <path d="M27,2224.68c-9.03-13.87-10.91-29.38-13.1-44.76-2.2-15.4-.93-28.85,1.79-44.2,2.33-13.13-2.52-27.28-5.96-39.96l-6.66-24.59c1.82-4.11,11.09-11.34,14.81-8.68l16.66,11.92c9.92,7.1,22.78,4.59,35.16,4.11,6.14,3.3,8.41,12.71,10.89,18.99,3.33,8.42,4.67,15.64.03,23.26-2.59,4.25-5.37,14.1-3.1,18.41l25.16,47.77,8.28,15.08c12.13,1.25,24.79-4.99,31.91-15.72,17.52-26.4,35.49-51.52,59.78-72.74,9.97-8.71,13.84-22.19,21.45-19.66,2.26.75,5.85,5.82,5.73,8.55-.83,17.52,1.02,35.26,5.2,52.57l10.06,41.75c1.51,6.28,6.88,12.33,11.99,16.09l-1.94-36.7c-.54-10.16,9.93-21.09,16.12-28.96,10.42-13.27,14.29-26.39,18.67-42.24l14.35-33.37c2.49-5.8,17.3-11.62,33.4-26.43l20.4-18.77c1.79-1.65,7.11-2.41,8.65-.07l-15.89,42.4-14.82,39.01-16.66,43.33-11.24,25.9-24.3,64.29-12.26,37.25-6.19,26.13-7.32,18.78-6.94,17.89c-15.35,13.46-34.28,29.85-50.49,23.54-12.53-4.88-14.36-31.32-12.15-49.37l8.89-72.51c2.09-17.03,3.15-32.62-.98-51.62l-49.86,73.3-17.91,27.54c-.62,2.08-1.23,4.15-1.85,6.23-7.4,15.17-15.89,28.97-26.18,42.43l-12.28,14.47c-3.52,4.15-6.74,7.86-11.27,11.53-10.21-14.03-12.24-27.22-16.66-42.18l-15.39-52.11-8.12-30.86c-1.4-5.31-6.25-11.51-9.83-17.01Z"/>
  <path d="M1278.52,2343.37l-33.68,3.39-23.63-10.02c-2.27-4.96-4.63-11.71-5.47-19.93-2.13-20.65,6.7-36.55,10.49-42.58,5.53-2.44,11.06-4.88,16.58-7.33,9.89-8.84,19.79-17.69,29.68-26.53,16.17-15.3,29.68-27.19,38.82-35.04,23.71-20.39,32.97-26.54,41.67-40.72,9.34-15.24,12.3-30.38,13.38-40.34-16.97-1.75-31.08-3.67-45.83-9.4-8.31-3.23-15.5-6.4-25.06-5.47l-17.89-2.47c-8.2-1.13-14.69-2.81-23.22-3.41l-21.8-1.54c-14.85-1.05-27.12-2.25-41.61-6.26-14.51-4.02-35.19,9.41-40.51,2.11-1.36-1.87,1.24-7.44,3.36-8.64l18.55-10.5,28.22-17.58c4.54-2.83,8.87-3.48,14.56-3.68l26.76-.95,21.46-.55c14.03-.36,28.3-7.44,42.66-5.66l53.12,6.56,35.54,5.19c13.61-.35,26.35-.68,39.4,2.69l23.83,6.15c.71,3.17-.11,10.82-2.52,13.4l-41.62,44.58c-10.57,11.32-20.24,22.06-32.66,31.71l-15.93,15.77-42.93,36.3-25.5,18.36c-12.39,8.92-29.29,24.66-33.93,38.55,15.12,1.97,30.24,6.55,43.47.58l25.29-11.41c13.36-6.03,25.86-7.1,39.77-3.15l35.97,10.23c13.02,3.7,27.64,4.66,39.79,10.5,13.01,6.26,23.71,15.15,38.5,17.75l15.74-1.81c1.63,3.85.25,9.91-1.43,14.02l-10.48,25.68-24.2-4.68c-7.24-1.4-16.93,4.36-23.89,5.87l-25.63,5.54c-13.03-1.85-28.5-2.9-45.81-1.82-7.84.49-15.18,1.36-21.97,2.45-8.45-1.23-18.46-2.04-29.69-1.73-15.76.44-29.24,2.99-39.74,5.79Z"/>
  <path d="M103.61,1274.26c-9.55,6.44-7.44,17.43-9.36,27.19-1.92,9.78-5.73,21.48-10.61,29.91l-9.93,17.15c-5.53,9.54-13.93,20.44-15.53,31.83-3.54,25.11-5.55,49.24-15.34,72.8-3.89,9.35-10.98,17.72-15.66,26.63-4.94,9.41-10.28,18.14-23.96,17.73.84-6.48,2.37-12.55,4.68-18.89,5.58-15.32,10.41-30.83,13.43-47.04,3.91-21.04-.31-41.46-2.15-62.3-1.84-20.79,18.32-47.27,23.27-73.26,3.78-19.82,6.87-38.26,12.45-57.49,5.89-20.3-.11-44.94-3.4-64.98l-2.05-12.47c15.8,3.04,9.46-15.88,24.93-17.15,7.31-.6,11.02,3.47,15.94,8.63l27.76,29.12,24.9,37.74c11.01,16.69,20.05,29.76,22.27,54.74l30.28-39.66c6.83-8.95,10.11-21.03,14.89-31.31l27.29-58.71c5.19-3.24,15.05-7.78,20.4-7.66,7.32.15,2.11,8.62,2.82,11.53l9.3,38.26c1.61,6.61,6.49,13.62,6.68,20.06.28,9.35,4.01,19.79,3.13,28.63-4.31,43.08-14.15,83.71-24.09,125.48l-9.32,56.64-4.96,51.83c-1.32,13.78,1.56,26.82-.53,41.7-5.16,1.18-10.04-1.01-14.54-4.24-7.95-5.7-19.73-4.47-28.57-.14l-22.82,11.18c-1.62.79-5.6,1.22-7.07.45s-3.48-4.42-3.78-6.17c-1.75-10.24,3.14-18.07,7.19-26.74,24.08-51.54,33.37-86.91,31.2-144.44l-1.67-44.27-9.07,14.77c-13.63,17.5-23.77,36.01-29.6,57.81-5.15,19.26-11.33,37.3-19.03,55.76l-8.13,26.16c-.64,2.07-3.62,5.39-5.58,5.39-2.29,0-6.32-4.46-6.44-7.1l-2.15-48.29-1-31.74-4.45-49.79c-1.33-14.92-7.45-28.58-12.03-45.29Z"/>
  <path d="M1366.85,925.63c-10.51-13.09-21.06-24.48-33.63-35.48-9.05-7.92-17.4-16.26-28.77-21.26-10.16-4.46-18.14-9.98-27.26-16.71l-19.69-10.09c-1.01-3.71,1.35-10.05,4.04-12.33,6.66-5.65,7.73-11.3,9.98-19.49,2.03-7.41,10.87-14.72,17.69-18.73,15.56-9.15,25.89-21.5,38.77-33.68l15.19-14.37,37.59-37.6c-.29-3.81-2.02-9.29-4.05-11.26-18.73.85-38.86-2.25-52.42-12.74-.77-.11-3.1.64-2.91,1.51l.83,3.75c1.2,5.44-.4,19.76-6.57,27.08l-14.41,17.1-33.88,28.74c-9.88,8.38-18.46,16.33-30.39,22.81l-4.99-46.44c-1.1-10.21-3.86-19.19-7.18-29.3-4.16-12.66,14.12-21.16,12.16-37.51-.58-4.88-4.87-13.17-10.84-14.53-5.16-1.17-9.65,5.91-11.32,9.96-5.79,14.08-10.08,18.04-15.66,25.04-3.53,4.44-9.45,10.02-19.72,14.33-3.12,5.44.39,10.71.97,15.89,1.39,20.61,1.67,42.31-10.57,57.85-4.03,5.11-7.47,10.19-5.15,17.42,9.91,30.91,11.64,71.56,4.99,103.23-4.18,19.94-7.1,39.29-9.66,59.6l-6.45,51.27-3.15,17.76c8.29,2.99,14.63-1.99,18.98-6.61,2.03-2.15,8.55-2.24,11.19-3.06l20.39-6.36,9-10.74c2.84-4-1.7-13.86-1.81-19.16l-.39-18.11c-.15-7.07.16-12.99,1.53-20.1l3.15-16.42c1.51-7.86,1.52-14.28,4.45-21.69,2.01-5.08,2.16-9.76,2.24-16.04l13.54,22.13c6.45,10.54,15.91,19.52,23.91,28.94,2.41.95,4.82,1.9,7.23,2.85l15.32,10.6c11.5,7.96,22.88,13.41,30.54,30.61l8.68,19.49c4.13,9.27,8.7,17.29,19.79,22.08l11.89-41.9c3.9-13.76,9.24-26.83,20.23-36.35,2.3-1.99,7.91-7.89,6.05-10.22l-9.45-11.77Z"/>
  <path d="M266.96,897.73c-5.27-17.58-11.85-33.55-21.1-48.67-9.3-8.53-19.69-9.02-31.44-10.17l-34.81-3.4c-3.54-1.13-7.08-2.25-10.62-3.38-2.78,1.45-6.26,3.75-9.41,7.37-.87,1-1.62,2-2.27,2.96-3.28,11.41-6.65,20.98-6.18,33.34.1,2.65,6.29,7.52,8.78,6.21l21.74-11.49c5.75,4.36,3.44,13.28-1.42,18.2-16.5,16.69-37.75,36.21-57.9,47.16-6.07-10.93-9.63-17.63-18.19-24.68-5.13-4.22-12.4-15.61-10.8-22.09,3.7-6.29,7.49-11.76,9.36-18.03l7.93-26.72c3.49-11.77,6.84-24.99,8.7-37.25,4.17-27.36,2.73-59.96,23.3-71.79,9.57-.31,21.98,7.63,27.76,15.63l20.58,28.46c6.12-1.22,10.38-4.19,15.21-6.98l29.44-17.02c8.1-4.68,7.79-17.61,5.94-25.07l-7.02-28.31c-12.8-9.62-26.22-25.81-42.93-27.56l-29.73-3.1c-10.43-1.09-24.39.97-34.21,4.74l-37.44,14.36c-8.13,3.12-14.37,4.42-17.25,14.35l-10.19,35.1-9.06,42.82-5.64,46.2c-4.42,36.17-20.91,52.97-27.21,85.52-1.45,7.49,2.44,15.06,4.37,21.64,4.67,15.89,13.58,32.08,25.09,44.79,7.44,5.31,18.73,12.18,26.76,14.8,9.38,3.06,15.28,2.87,20.02,11.87,4.98,9.44,16.47,8.91,25.54,4.54l18.42-8.88c5.85-2.82,11.95-8.68,17.3-12.73l16.55-12.53c10.07-7.62,18.48-14.9,23.63-27.09,1.67,15.08,7.71,25.01,13.95,36.95,2.83,11.12-1.92,28.45-8.97,38.28l-23.51,32.78c35.37-3.17,45.26-35.03,74.18-39.91-.07-8.28-.54-16.94.88-24.64,5.99-32.38,9.9-63.61,11.87-96.58Z"/>
  <path d="M711.35,2266.63l-21.24-24.78c-5.17-6.03-13.57-3.14-20.16-4l-36.34-4.77-23.15-5.69c-13.53-3.33-17.77-20.68-10.45-31.8l14.98-22.76c9.11-13.84,15.04-28.25,21.44-43.88l12.86-17.2c4.63-8.85,5.47-19.1,7.01-28.98,4.61-29.6,24.68-41.02,23.42-64.46l-14.19-21.11c-.95-1.41-6.04-2.97-6.23-1.54l-.6,4.36c1.34,8.84-1.79,15.71-5.17,23.46-4.36,10-11.09,16.61-17.57,25.19l-21.37,28.26c-5.5,12.74-11,25.48-16.49,38.22-5.6,10.92-11.2,21.84-16.8,32.76l-10.28,18.81-10.53,21.66c-4.22,8.69-8.95,17-18.21,21.17-7.29-17.81-16-33.59-30.01-45.82-6.79-5.92-13.8-11.49-17.68-20l-28.79-63.18-10.92-23.68-5.4,17.31c-.95,3.05-5.31,8-6.89,10.97-4.39,8.23-8.12,15.34-14.23,22.16-3.83,4.27-4.8,8.85-2.06,14.32,14.11,28.29,31.49,53.95,50.92,78.8,15.6,19.95,21.95,60.87,13.15,71.51l-23.08,27.9c-8.07,9.75-10.28,23.34-14.33,35.15-2.63,7.68-6.95,12.85-11.71,19.46l-23.18,32.2c-.81,1.13-1,5.62.07,5.3,5.92-1.77,10.07-12.49,27.91-26.01l32.04-24.29c9.07-6.87,12.95-14.87,19.01-24.73,5.04-8.19,19.82-12.12,28.78-15.87l42.53-17.77,20.75-6.66c11.52-3.7,25.01.77,36.92,3.73l35.8,8.92c7.99,1.99,16.22,6.53,24.07,9.54l28.65,10.99c10.11,3.88,18.75,8.76,30.09,9.01,3.48,2.16,6.61,3.97,11.14,4.95-11.14-23.15-28.53-38.58-44.46-57.17Z"/>
  <path d="M325.11,1475.34c-4.7-4.69-10.38-8.27-16.2-10.73l-2.67-11.79c16.61-47.84,27.51-99.39,20.93-150.24-2.73-21.1-2.97-36.64,7.49-55.94,6.45-11.9,10.5-28.06,15.16-41.43,9.3-26.73.75-43.37,6.93-60.61l30.18-9.61,13.86,31.17c9.22,20.73,16.4,42.55,18.04,65.58,2.14,30.03,9.59,58.4,21.49,86l24.95,57.86,8.63-34.2,7.19-42.36c1.53-9.02,4.76-17.91,10.93-24.63,13.11-14.28,18.29-30.87,19.72-49.93,1.05-14.02,1.6-29.04-.32-42.95-2.74-19.82-2.35-41.97,11.01-39.36,10.16,1.99,18.94-1.32,29.29-9.39-2.42,18.48-2.52,35.96-6.6,52.66l-9.35,38.21-8.23,38.95-11.42,47.89-8.5,51.19-5.86,51.33-7.92,45.19c-1.54,8.8-3.59,17.28-7.25,26.07-4.47-1.44-7.96-4.82-11.22-7.97l-15.26-14.75c-15.39-14.88-33.95-27.71-46.73-45.6-9.65-13.52-17.65-27.86-32.37-37.2-1.46,10.49-3.06,18.45-6.01,27.04-4.44,12.91-4.39,27.16-6.99,40.85-2.95,15.51-7.32,30.98-4.4,46.59l5.82,11.21c-11.51-1.46-20.57-5.37-27.84-12.64l-16.49-16.45Z"/>
  <path d="M906.34,2226.76c-6.08-11.61-11.12-19.88-10.93-32.64.31-20.79-4.24-43.32-23.08-50.68-15.46-6.05-33.2-11.61-41.5-27.09l-20.6-38.44c-6.16-11.5-11.25-22.46-13.67-35.16l-1.15-6.06c-.33-1.75,3.54-5.16,5.5-5.63l32.96-7.93c6.49-1.56,15.29-16.69,17.76-15.53l5.72,2.68,5.33,71.6c.8,3.92,2.61,10.18,5,12.24,10.14,8.75,28.34-6.61,55.75,13.38,9.32,6.8,22.07,12.55,33.56,13.62l31.03-24.47c16.21-9.73,31.68-18.35,45.81-30.98l25.7-17.57c2.63,7.11,1.29,12.36-2.71,17.34l-18.14,22.57c-8.07,13.58-9.76,31.15-18.56,43.4l-35.92,50c-6.27,8.72-11.73,19.48-13.44,29.87l-6.41,38.99c-1.52,9.24-2.59,21.12-.5,30.41l7.13,31.67c3.26,14.49,7.87,28.34,8.54,43.18.36,7.83,1.62,14.96,6.5,21.43,8.69,11.53,14.64,24.61,13.78,39.44-24.2-.83-24.91,11.68-32.6,12.41-20.39,1.94-19.39-29.57-21.3-47.5l-15.06-65.71-7.36-30.55c-4.65-19.3-7.49-39.86-17.14-58.3Z"/>
  <path d="M327.99,1015.45c-1.16,1.72-7.17,3.32-7.74,1.84-.57-1.48-1.77-5.9-1.42-7.78l4.41-23.61c2.82-15.11-2.49-33.88,4.05-47.63,9.92-20.88,18.99-39.93,21.2-63.24l2.95-31.21,1.33-37.93.77-35.93c.27-12.66,2.59-24.75.36-37.51-1.15-6.6-7.31-13.21-10.5-18.98l-7.88-14.27c.88-2.32,1.77-4.65,2.65-6.97l26.63-3.41c8.52-1.09,16.1.18,20.96,8.13,13.44,17.36,18.52,38.23,13.39,59.95,6.56,16.6,9.47,32.79,8.26,50.69.51,5.48,3.83,8.28,9.17,8.23,6.89-.05,12.28,1.94,18.45,3.44l28.19,6.87c3.13.76,9.81-3.71,10.27-7.2,2.42-18.32,4.05-34.7,3.26-53.28-.34-8.02-5.2-19.39-1.67-26.92,6-6.73,17.05-5.63,25.26-8.16,9.19-2.83,18.11-10.88,24.46-18.5,9.14-10.95.54-29.67,13.69-33.06l-4.03,62.99-1.72,34.01c-1.29,25.44-9.72,48.69-8.18,71.48.14,3.5.29,7.01.43,10.51-6.75,14.17.41,29.35,1.71,43.99,1.19,13.52-.12,28.84-2.16,41.89l-6.51,41.76-1.66,16.79c-16.68,4.74-29.44,15.57-42.62,26.44-10.77,8.88-17.2,16.89-23.6,31.95-1.68-15.92,3.78-28.05,5.26-42.3l2.96-28.52,5.44-54.76c1.99-19.98,17.09-31.56,15.98-52.18l-88.21-11.3c5,15.6,10.15,26.91,4.66,39.46l-12.89,29.44-20.16,27.83c-2.18,3.01-2.31,12-5.57,13.94-5.34,3.17-11.83,6.67-14.86,11.17l-14.77,21.85Z"/>
  <path d="M1505.82,1563.94l-14.66,24.33c-6,9.96-8,17.72-9,29.21l-1.53,17.57c-.71,8.13-1.3,16.64-2.65,24.92-1.67,10.21-4.92,17.76-7.23,23.54-11.14,27.96-31.78,67.97-34.6,73.42-12,19.85-24.03,40.58-35.99,62.2-10.13,18.31-19.7,36.32-28.73,53.97-8.33-18.74-12.7-38.05-17.69-57.1-16.17-61.71-48.22-110.82-64.05-170.2-9.25-34.67-14.85-68.45-18.81-104.21,5.42-10.86,20.7-17.88,32.38-11.67,3.67,4.3,7.38,13.46,7.99,19.45,1.76,17.45,5.8,32.51,12.71,48.06l10.5,23.64c3.62,9.28,7.85,19.08,12.79,29.25,6.85,14.1,14,26.75,21.02,37.94,5.78,8.49,11.56,16.97,17.35,25.46l2.96,30.15,21.13-28.58c17.28-30.8,27.97-63.74,42.3-95.89,8.31-18.63,17.41-35.14,17.91-55.97.18-7.63,8.93-12,15.79-10.25,7.11,1.81,11.57.36,18.4-4.9,2.43,2.36,4.46,11.11,1.72,15.66Z"/>
  <path d="M629.08,1700.54c-2.87-1.96-5.8-2.8-7.97-3.2-7.57-4.23-12.57-9.43-16.22-15.85-10.14-17.85-29.57-10.77-31.44-10.8-19.99-.34-38.43-7.47-55.78-15.18-3.8-1.39-16.64-6.62-21.91-19.79-1.34-3.35-1.77-4.96-1.42-6.79,2.2-11.66,30.61-16.25,56.15-13.13,11.47,1.4,26.56-21.34,19.83-32.54-3.97,1.62-7.1,2.2-9.9,1.28-30.68-10.08-60.31-4.88-89.91,4.48-17.23,5.45-35.79,9.79-45.35,27.33-8.93,16.38-7.61,38.55-.26,55.72,6.1,14.26,18.36,22.35,30.65,30.12,3.16,2,6.23,3.41,9.32,4.37,8.41,2.61,15.39,1.8,19.38,1.41,13.68-1.34,30.87-3.02,45.34,3.78,7.26,3.41,12.14,8.16,14.66,9.81l16.84,29.94c1.97,3.5-4.21,32.77-15.86,39.33-16.08,4.86-33.73.71-47.14-7.56-11.74-7.25-14.1-17.84-9.28-30.86-4.34-7.3-15.53-12.38-24.02-11.24-17.88,2.4-26.33,17.33-30.5,35.5l-5.65,24.67c-2.23,9.74-1.81,23.28.54,33.33,4.88,20.91,35.57,48.05,53.49,53.96,18.6,6.13,34.18-5.08,48.83-14.29l26.86-16.9c10.58-6.66,24.9-9.9,33.91-19.13,11.85-12.13,22.2-26.14,30.81-40.86,6.89-11.76,10.07-25.99,14.22-38.94,3.11-9.71,8.85-46.29-8.22-57.95Z"/>
  <path d="M617.88,1034.96c-2.6.68-7.69-1.67-7.44-3.61,13.87-15.48,32.71-25.66,51.18-34.33l24.83-11.66-2.82-22.71v-28.41c0-17.73.43-31.92,3.65-49.22l6.96-37.35,3.51-39.96c2.7-30.66.75-60.72-12.5-89.04-16.25,2.92-29.66,1.02-42.13-12.03,2.25-1.96,4.5-3.92,6.75-5.89,3.15-9.09,10.88-9.81,19.38-11.15l43.22-6.81c20.9-3.29,41.55-7.98,63.29-5.83,4.72,6.29.57,15.86-6.63,20.48-13.64,8.75-30.22,9.31-47.55,6.28,3.58,39.5,7.18,77.01,8.52,116.13l-4.77,20.8c-.08,11.46-2.83,19.31-5.87,29.65-3.2,10.9-3.27,22.46-2.93,37.12.42,18.3.63,27.44,6.14,36.17,3.83,6.07,7.67,8.38,13.27,18.18,3.65,6.38,5.84,12.07,7.11,15.87,17.32-3.16,31.63-2.81,46.46,7.02-6.56,6.48-13.97,11.1-22.59,13.98-25.24,8.45-50.37,14.94-76.53,20.04l-40.99,7.99-31.51,8.29Z"/>
  <path d="M1118.21,452.28l40.05-.26,18.22.04,22.77.96,4.36,24.46,2.81,42.79c.56,8.57-.15,21.52-11.41,23.26-6.76,1.04-19.57-3.46-25.93.56-14.44,9.12-27.46,10.27-43.91,7.06l-29.99-5.85-32.28-7.28-.43-36.89,2.95-33.89c4.35-25.07,9.05-48.76,10.38-74.33,1.16-22.47,3.72-44.25,2.93-66.72-.96-27.34-8.36-49.88,14.17-61.83,12.43-6.6,23.93-12.53,37.04-17.11,9.66-3.38,21.14,1.04,30.17,2.69l25.92,4.74c8.89,1.63,20.81-2.79,29.72,1.58,9.68,4.75,12.15,18.17,11.42,28.21l-2.34,32.44c-6.83,9.92-18,16.07-30.08,14.65l-37.34,10.25-26.59,3.26c-2.55,8.18-2.92,25.21,5.49,31.92l22.36,17.82c5.98,4.77,12.64,12.66,15.5,20.39,2.43,6.56-2.71,15.65-5.79,21.23-24.57-7.9-30.48-30.84-41.99-19.48-16.48,16.25-15.07,35.39-8.18,35.34Z"/>
  <path d="M1653.89,926.97l-12.74,35.25-1.93,13.14-6.07,21.88c-4.93.31-13.36-.81-19.85-2.27-12.82-2.89-25.67,3.57-38.1,4.04l-41.44,1.56-63.89,23.75c-1.82-1.49-3.1-4.89-2.85-7.38,3.5-34.48,6.73-67.34,7.45-102.2.58-27.98-23.64-47.61-10.42-73.53l8.9-17.45c5.08-9.97,7.09-21.19,6.83-32.84l-2.2-98.31c1.57-4.32,3.1-8.85,4.57-13.59,2.15-6.96,3.92-13.64,5.4-19.99,6.74,5.41,9.01,14.53,10.53,23.13l6.85,38.65c2.05,11.58,8.42,23.32,9.14,35.1l3.88,63.4c.6,9.88-1.82,22.84,2.82,31.38,4.93,9.08,5.14,13.71,2.39,23.26l-10.87,37.84c-2.86,9.95-4.46,18.36-2.73,29.78l20.51-.35,36.99-2.26,30.59-4.57c10.69-1.6,18.63-1.74,24.34-12.45,12.08-22.68,31.98-36.2,41.57-65.56,1.38.73,4.16,5.77,3.76,8.08l-4.65,26.71c-2.14,12.31-4.33,23.52-8.78,35.83Z"/>
  <path d="M975.91,1579.04c12.76-12.06,25.74,3.72,46.07-5.63,5.48,2.67,9.53,11.8,9.93,18.7l1.84,31.24c.67,11.41,30.02,37.09,34.57,53.5l10.23,36.92c2.35,8.46,2.45,16.75,11.48,21.34l22.71,11.53c7.15,3.63,19.99,4.21,26.84.02l16.59-38.39c7.24-16.76,9.23-37.31,8.31-55.74l-1.8-36.1-1.58-47.51c-.17-5.22,2.15-13.27,6.65-15.46,15.34-7.47,20.25-19.23,27.19-36.11,3.76,8.82,7.93,18.9,7.99,26.79l.37,45.67-2.15,37.09-1.13,39.02-1.45,26.25-11.37,77.56c-2.73,18.65-11.05,37.61-25.04,50.39-10.1,9.22-38.14,25.18-47.71,27.16l-25.34,5.22c-16.94,3.49-29.61-13.12-40.54-22.57-16.11-13.93-27.18-29.58-33.78-50.54-15.26-48.46-28.66-96.91-39.67-146.83-3.91-17.75-.08-35.68.8-53.52Z"/>
  <path d="M1368.27,487.32l-2.12,55.8-9.92,32.07c-2.81,9.07-13.56,2.27-31.03,10.24-1.97.9-7.36.86-9.05-.3-2.04-1.39-2.7-7.33-1.95-9.89,4.44-15.18,6.4-28.46,7.64-44.14l2.43-30.54c5.77-31.87,8.68-62.19,12.05-93.93,2.74-25.72,7.4-49.85,6.8-75.89-.42-18.29-4.25-33.92-18.09-49.33,24.98-22.33,46.33-9.07,68.4-19.21,9.78-4.49,19.51-6.41,30.09-8.49l19.81-3.9,18.51-3.36,34.8-9.18-1.46,39.01c-.53,14.17-1.06,28.9-4.83,42.6-4.09,1.98-9.91,2.43-13.95,1.82l-24.21-3.67c-19.37-2.94-33.97,3.33-54.78,0-6.51-1.04-12.42.23-18.48,3.67-1.7,11.54-.64,21.61,2.49,32.46l-3.76,35.94,1.94,30.88,25.96.79c4.21.13,13.54-1.79,16.42,2.44,4.66,6.84,3.07,17.23-.18,24.28-15.57,6.7-31.5,10.14-48.02,13.09l-5.51,26.77Z"/>
  <path d="M747.05,519.06c.17,14.14-8.07,4.48-20.62,20.46-4.84,6.16-15.63,8.9-22.63,12.88-1.31.75-5.53,1.46-10.14,4.34-1.46.91-2.59,1.77-3.31,2.34l-15.62,5.01c-11.69,3.75-27.09,8.4-37.72-2.38-8.33-8.45-16.55-22.3-18.45-34.53-3.68-23.65-6.86-45.54-8.94-69.55-1.2-13.83,5.4-28.42,8.17-41.65,3.34-16-5.53-29.4-7.33-45.01-1.99-17.28,16.72-44.83,24.98-78.86,5.33-21.94,37.48-27.74,60.24-22.9,26.87,5.72,40.82-6.65,51.27,8.78l19.83,29.31-4.58,24.32c-12.85-3.54-26.78-6.17-40.24-3.25-11.36,16.29-18.34,34.23-25.15,52.72-6.2,12.29-10.02,24.53-9.55,38.35-10.59,20.19-16.22,63.92-9.19,70.38,1.39,1.28,6.22,1.6,8,.61l15.17-8.47,19.18-13.36c9.89-6.89,19.78-9.83,32.74-13.16l-3.3,30.96c-1.14,10.7-2.96,20.23-2.81,32.65Z"/>
  <path d="M1101.11,663.77l-38.11,1.78-52.2,6.81c-37.85,4.94-75.18,5.26-112.51,12.09,1.03,1.27,1.83,2.54,2.45,3.76,5.84,11.55-1.06,25.15-2.84,28.46-5.36,14.37-27.04,30.33-31.98,46.04,12.33-1.01,18.3-4.81,27.78-8.29,9.21-3.37,20.77-5.7,30.8-6.7,7.59-.76,11.26,10,13.33,15.37l17.1,44.3c5.47,14.17,10.49,26.68,13.39,42.17,1.83,9.8,9.44,20.9,7.34,31.59-1.93,9.82-7.87,19.3-11.19,28.74-2.93,8.32-6.41,14.77-11.74,21.86-7.31,9.71-12.51,23.28-22.51,30.56-9.55,6.96-23.59-1.01-31.64-5.98l-16.61-10.24-16.32-7.01c-1.63-.45-4.26-.91-7.32-.28-4.25.88-7.22,3.43-9.08,5.64-2.68.65-4.75,3.07-6.81,5.63l-3.57,4.46c.51.7,1.04,1.41,1.57,2.11,7.83,10.35,16.5,19.21,25.56,26.84,1.76,2.82,3.92,5.84,6.6,8.89,4.6,5.25,9.37,9.1,13.51,11.88,3.47,4.09,8.36,7.6,13.64,9.24,16.59,5.16,31.74,11.5,47.57,20.07,11.16-14.52,23.38-27.22,38.26-37.73,18.81-13.28,34.9-28.79,49.99-45.8,15.07-16.99,23.49-35.47,25.38-58.3.87-10.55,8.69-22.78,5.28-33.76l-11.85-38.21-9.79-28.92c-4.81-14.21-11.56-29.33-11.46-44.37l.19-29.61,42.47.48c11,.12,17.08,6.05,20.59,17.68,3.98-3.89,5.93-9.19,6.23-14.99l2.47-46.85c.12-2.26-2.19-7.53-3.92-9.4Z"/>
  <path d="M903.66,1584.89l-7.31-7.42-37.62,2.37c-14.64,3.31-27.38,3.47-42.46,4.86l-17.71,1.64-23.84,1.51c-22.56.93-45.12,1.86-67.68,2.79-9.65-.18-17.53.73-27.4.31l-31.96-1.37c-7.29,4.27-14.06,10.66-20.07,18.2,9.22,5.84,19.05,9.78,28.79,9.59,11.02-.21,19.71,1.7,29.79,4.98,9.56,3.11,18.58,5.92,27.33,10.62l24.55,13.19,20.65,11.09-4.01,32.49c-5.65,32.46-8.99,53.6-10.02,63.44-.02-.01-.04-.03-.06-.04.01.07.03.14.04.21.31,1.58.62,3.16.92,4.74,4.03,20.68,8.06,41.37,12.1,62.05l.2,12.88c.17,10.92-4.04,22.45-6.31,33.5-2.42,11.76-6.75,22.53-12.08,33.17l-14.78,29.51c9.62.03,18.69.44,26.52-1.87l47.46-14.05-2.69-34.96c-1.37-17.78-2.65-36.12.25-53.9,4.49-27.55,8.17-54.73.73-82.19-4.63-17.09-10.75-25.16,8.25-48.82,17.86-22.23,16.58-45.95,25.06-48.77,8.96-2.98,23.15-2.43,31.44-6.09l26.24-11.59c14.74-6.51,29.48-9.97,41.95-24.05l-26.26-18.04Z"/>
  <path d="M367.31,1830.52c-11.51,5.4-20.92,10.58-30.97,17.89-17.62,12.82-47.75,26.49-61.85,12.12l-19.48-19.84c-8.13-8.28-12.39-17.21-17-28.06-8.67-20.41-22.04-36.83-34.65-56.31l24.07-18.86,29.43-26c13.82-12.21,23.33-27.94,25.08-46.95.98-10.67-4.24-21.41-8.52-30.17-10.58-21.66-29.58-28.77-52.52-27.08l-50.36,3.71h-37.75c-9.3.01-21.03-3.79-29.39-8.35l-13.79-12.67-19.48-2.14c-.67,1.53,1.47,5.37,3.07,7.59l14.84,20.62,1.03,32.73,1.55,19.3,5.14,50.6,6.49,59.18c1.06,9.66.54,20.72-2.15,29.64l-9.68,32.05-10.3,38.27c-7.54,28.02,2.16,39.18,3.63,33.34l1.36-5.4,26.13-49.2c9.58-9.72,17.02-20.31,23.45-32.22,9.77-7.59,16.86-18.33,19.52-30.64l5.22-26.32,24.75,36.76,23.41,43.01,11.08,22.56c6.8,13.85,17.51,19.31,30.28,25.86,15.85,8.12,32.21,15.34,50.77,9.3l24.79-8.07c14.76-7.59,22.23-22.15,31.6-33.74,8.91-11.03,18.95-21.01,23.68-35.09-4.43-4.37-8.96.95-12.48,2.59ZM246.43,1644.69c.52,6.83-2.21,13.18-4.72,18.89-5.46,12.42-12.77,21.08-24.44,28.24-4.35,2.67-11.07,8.02-15.94,8.08l-39.17.46c-6.41.08-13.78-3.09-19.8-5.5-1.37-9.32-1.55-18.8.61-26.74l29.27-9.15c5.86-1.83,12.66-1.76,19.45-2.66,13.72-1.82,31.69-18.67,54.75-11.61Z"/>
  <path d="M1057.08,1280.56c-1.26-20.23-2.53-40.45-3.79-60.68-10.15-13.87-20.31-27.75-30.46-41.62-7.74-10.58-15.49-21.16-23.23-31.74-2.55-.53-8.54-2.23-10.91-1.36l-17.36,6.4-32.58,7.99c-18.89,4.63-38.79.39-44.63-21.66-10.14,2.76-15.8,11.16-15.36,21.39l-17.75,13.17,4.88,23.74,4.17,47.36c2.93,33.29-4.08,65.37-17.68,95.16-9.07,19.89-7.26,38.84-5.85,59.61l2.77,40.94c3.12,17.46.57,33.84-2.06,51.16-3.15,20.7-1.38,40.58.59,62.68,7.73-4.01,9.94-10.26,15.04-15.82l13.95-15.19c8.59-9.35,20.57-17.67,24.22-30.61,1.95-6.91,2.83-17.97,1.07-24.8l-7.36-28.55-1.79-42.86,1.66-25.5,5.35-27.84c8.78,1.31,13.8.31,21.34.43,10.68-1.35,21.36-2.71,32.05-4.06l29.5-7.61c13.88-3.58,28.18-11.6,41.97-4.88,4.69,2.29,10.78-4.83,15.25-8.58,11.3-9.48,17.98-21.33,17.02-36.67ZM1014.95,1275.54c-1.71,10.14-11.26,16.41-20.49,20.5-21.95,9.75-48.54,4.65-61.28-15.11-4.96-7.69,2.27-16.22,3.89-23.25,5.49-23.76-13.96-45.8-9.99-55.93,4.3-10.94,41.17-10.64,56.64-.65,24.53,15.84,35.98,46.28,31.23,74.42Z"/>
  <path d="M275.78,517.93c-14.74-31.11-22.26-63.38-32.19-96.23-13.93-46.07-24.82-91.67-27.82-139.96-1.64-26.42,3.84-33.02,3.04-38.02-.23-1.44-5.38-2.01-6.91-1.66l-19.34,4.46c-17.35,4-32.61,7.61-50.79,8.91-8.05.58-22.6,2.21-25.12,10.63l-9.76,32.6c-2.77,9.27-9,17.18-11.19,26.87-8.79,38.97-18.71,76.14-31.84,114.23-5.86,17.02-17.21,31.06-23.97,47.58l-16.44,40.15c-4.4,6.72-15.09,8.17-23.44,15.31l47.27,15.89c9.5,3.19,18.17,8.21,28.42,7.94,6.53-12.19,17.8-15.01,30.41-12.78,5.88-22.13,14.75-46.29,26.79-65.09,12.46-19.45,19.51-37.99,22.47-62.75l19.69.35c4.15,11.65,8.48,21.5,10.98,32.57,2.22,9.86,3.73,17.94,7.11,27.57,3.53,10.04,1.07,22.39.76,33.05-.46,15.85-2.68,27.63-12.76,41.34l26.68,2.05c8.85.68,19.35,2.12,27.33-1.56,10.07-4.65,18.86-4.84,28.52,1.56l23.91-7.61c-.77-14.57-6.02-25.23-11.8-37.42ZM139.7,348.27c2.86-15.41,4.61-30.55,4.31-46.18,13.49.84,21.94-6.41,31.51-3.87,3.95,9.52,4.5,19.2,4.48,29.5-.04,18.39.91,35.44,1.9,54.66-25.55-12.16-25.57,16.11-43.7,13.61l2.27-13.37-.77-34.35ZM280.9,548.5h0s0,0,0,0c0,0,0,0,0,0h0ZM16.89,541.96s0,0,0,0h0s0,0,0,0Z"/>
  <path d="M524.47,503.45c-10.25-52.77-22.38-44.1-54.02-62.46l-25.32-14.69c15.2-11.19,30.36-21.35,42.68-34.11,1.81-1.87,3.5-3.58,5.21-5.11,2.61-1.77,5.2-3.53,7.8-5.28,3.03-1.38,6.5-2.2,10.83-2.34,18.33-.58,10.37-33.37,4.85-56.39-2.46-10.26-1.86-23.6-7.98-32.5-5.97-8.69-19.99-12.23-29.8-13.87l-51.77-8.65c-24.21-4.05-26.98-15.79-55.41-17.1l-25.6-1.18c-1.69-.08-6.19,1.23-5.86,2.63.33,1.4,2.28,4.98,3.64,5.42l12.23,3.96c2.93,14.79.55,28.56-6.19,42.07-10.06,20.15,5.93,34.19,5.87,53.78-.12,38.72.27,75.58,3.23,114.03.8,10.32.03,19.7-.77,30.43-3.26,43.77-14.03,25.44-31.71,48.82l20.53,7.91c5.43,2.09,15.56,1.62,21.9,2.47l42.55,5.71,29.51,5.92c34.44,6.91,48.34,8.75,81.98-10,2.18-4.76,4.65-9.21,8.09-12.16-.72-15.21-3.36-31.56-6.43-47.32ZM446.66,524.92l-47.53-9.48,10.79-31.66c1.18-3.47,6.21-11.12,9.84-11.45,22.99-2.08,32.81,11.72,47.11,26.43,6.48,6.67,15.24,16.73,10.23,27.87-8.72,5.91-21.7.04-30.44-1.7ZM424.25,318.7l49.67,2.35c2.1,10.22,1.75,19.05-.68,27.91-29.52,12.56-43.25,46.85-62,29-.08-8.48-1.99-17.09-4.58-23.8l3.19-25.07c.57-4.49,8.84-10.66,14.39-10.39ZM396,264.16c-3.87-1.87-7.28-3.33-10.27-4.46,3.5,1.16,6.87,2.72,10.27,4.46,0,0,0,0,0,0ZM360.17,529.23s.04-.09.06-.14c0,.04-.02.08-.03.12-.01,0-.02.02-.03.03Z"/>
  <path d="M1383.55,1410.89c-4.12-17.67-11.14-33.47-29.28-35.72l26.42-75.28,9.77-30.23c5.74-17.76,4.52-38.81,3.35-57.43-1.02-16.29-9.81-31.8-22.68-39.72-11.36-1.61-22.73-3.21-34.09-4.82-9.53-2.93-19.39-6.21-29.55-9.86-9.25-3.33-18.11-6.76-26.57-10.22-15.02-9.11-32.37-3.8-41.68,10.59l-47.97,37.64c-21.72,25.67-29.79,69.88-29.1,103.89l.57,27.95c4.86,30.29,12.88,58.48,22.8,87.18,3.64,10.52,12.46,18.76,19.17,26.34,18.57,20.96,42.62,10.37,66.37-5.05,4.29-2.22,11.09-5,15.49-8.22l22.25-16.29,12.67-7.94c23.87,20.47,29.88,50.51,54.34,67.13l21.6-11.9,22.74-29.6,9.71-21.44c-8.33-7.68-22.02,15.29-46.36,3.01ZM1335.9,1344.34c-3.37,9.87-6.74,19.74-10.11,29.61-4.43,1.57-9.22,3.02-14.34,4.23-21.57,5.11-40.9,4.18-55.47,1.88-4.77-2.2-9.55-4.39-14.32-6.59-7.14-9.77-16.48-20.47-19.38-33.03-6.83-29.53-8.13-70.06,13.69-89.5l33.99-30.28c3.5-3.12,7.57-5.27,12.53-5.47l34.19-1.43c7.99-.33,15.23,3.16,21.45,8.28,8.5,7,13.43,14.19,15.28,18,.99,9.84-.42,17.3-1.79,22.09-5.08,17.83-17.51,22.56-23,35.51-3.69,8.71-5.18,23.02,7.28,46.69Z"/>
  <path d="M792.15,1322.58l-2.4-20.44-5.75-42.97c-2.2-16.46-2.49-32.61-6.52-48.75-6.63-26.56-21.62-50.83-46.68-63.16l-18.39-6.7-18.17-1.6c-6.72-.59-14.43-.42-19.65,4.03-26.4,22.53-50.71,61.03-68.04,92.2-16.82,30.26-27.82,64.4-30.76,99.07-1.27,14.96,1.41,27.24,5.87,41.42l16.98,54.04,17.03,71.61c1.34,5.62,7.4,10.88,11.96,11.01,4.14.12,11.09-3.5,13.11-7.42,8.77-17.01,21.79-27.35,35.58-39.98l42.99-39.38,33.74-24.22c12.84-9.21,21.52-22.41,30.11-35.71,8.53-13.2,10.88-27.12,9.01-43.04ZM758.53,1292.62l-14.39,30.22c-8,16.8-29.69,40.87-46.43,51.17-12.41,7.63-25.32,15.81-31.7,28.38l-12.16,23.92c-3.91-3.42-6.16-7.72-6.67-11.86l-8.29-67.2c-2.37-19.19-5.57-40.19,2.04-58.67,12.73-30.89,33.93-55.99,57.25-79.22,3.93-3.91,9.18-2.38,13.17-2.93,16.18-2.21,29.15.44,37.34,15.89,11.24,21.2,14.77,46.34,9.83,70.3Z"/>
  <path d="M1002.81,372.17c-7.01-16.83-14.5-31.85-26.11-46.4-11.87-14.88-27.88-30.12-46.49-36.85-25.67-9.27-49.35-17.86-74.59-29.86.97,9.52,7.95,13.66,14.02,18.15,1.93,10.52,4.22,23.39,3.4,34.38l-5.05,67.58c-1.62,21.67-3.49,42.62-3.02,64.61l2.15,100.28,26.94-4.3c17.25-2.75,44.74-17.23,53.56-34.61l10.66-10.02,19.95-10.21c24.76-12.67,29.69-42.75,31.3-71.15.83-14.66-1.17-28.21-6.75-41.61ZM906.54,355.89c10.39,12.18,17.43,22.69,28.19,32.6,3.83,3.53,15.17,2.02,20.45,3.66,14.79,4.6,22.22,25.91,12.74,38.62-9.95,13.34-24,22.92-37.52,33.04l-26.43,19.79,1.9-35.95,1.68-43.86-1.02-47.91ZM877.26,333.75s0,.01,0,.02c0-.02,0-.04,0-.06,0,.01,0,.03,0,.04ZM873.34,538.19h0,0Z"/>
</svg>