<?xml version="1.0" encoding="UTF-8"?>
<svg id="Layer_2" data-name="Layer 2" xmlns="http://www.w3.org/2000/svg" viewBox="0 0 58.77 54.65">
  <defs>
    <style>
      .cls-1 {
        fill: #f0f;
      }

      .cls-2 {
        fill: #fff;
      }
    </style>
  </defs>
  <path class="cls-1" d="M21.54,1.53c-6.13,3.82-7.9,7.36-8.35,9.95-.26,1.51-.19,3.39-.83,10.69-.08.92-.15,1.68-.2,2.18-.61-.2-1.54-.4-2.1.07-.9.76-.27,2.85.14,4.23.77,2.56,1.56,2.64,1.73,4.5.12,1.38-.24,2.16.29,2.64.58.53,1.73.23,2.56-.09-.04.94-.02,2.32.33,3.94.79,3.66,2.74,6.09,4.76,8.56,2.41,2.94,3.61,4.4,5.43,5.27,3.14,1.5,7.39,1.65,10.6-.35.74-.46,1.17-.88,1.92-1.6,2.36-2.27,3.45-4.59,5.24-8.46,1.1-2.39,1.37-3.37,1.51-3.98.4-1.74.44-3.24.4-4.27.29.19,1.12.68,1.98.42.96-.29,1.36-1.33,1.7-2.23.52-1.38.27-1.84.54-4.04.33-2.71.85-3.29.36-4.47-.32-.75-1.02-1.7-1.83-1.72-.58,0-.81.47-1.09.41-.9-.21-.04-5.62-.17-8.46-.16-3.46-2.03-8.18-9.54-13.7-2.15-.64-5.56-1.34-9.7-.86-2.27.26-4.18.81-5.68,1.37Z"/>
  <path class="cls-2" d="M22.24,37.14c-.19-.08-.44.39-1,.91-.92.86-1.78,1.04-1.72,1.3.02.1.24.15.68.25.87.2,1.31.3,1.36.31,1,.17,1.87,1.61,2.35,2.3,1.09,1.55,3,3.23,4.93,3.66,2.23.5,4.24-.7,4.52-.87,1.98-1.22,4.38-4.34,4.89-5.49.05-.12.17-.41.45-.52.54-.21,1.17.5,1.41.3.14-.12.04-.47-.02-.67-.05-.16-.28-.89-1.19-1.51-.35-.24-1.08-.66-1.26-.48-.16.17.34.63.35,1.33,0,.18-.02.72-.73,1.52-1.55,1.77-4.35,2.48-4.83,2.59-1.15.28-2.47.6-4.23.4-3.39-.37-6.17-2.41-6.01-3.42.02-.15.16-.56.17-1.2,0-.35,0-.66-.13-.72h0Z"/>
  <path class="cls-2" d="M18.54,20.84c.42.18.84.36,1.26.55.86.89,1.71,1.77,2.57,2.66,1.09-1.02,2.17-2.04,3.26-3.06.36-.05.72-.09,1.08-.14l.05,1.39c-.96.83-1.91,1.66-2.87,2.48,1.01.84,2.02,1.67,3.03,2.51l.03,1.01-1.34.04c-.94-.9-1.89-1.8-2.83-2.7-.97.96-1.94,1.93-2.9,2.89-.24.09-.48.19-.72.28-.13-.36-.26-.72-.4-1.07.81-.91,1.63-1.81,2.44-2.72-.88-1.02-1.76-2.05-2.64-3.07l-.04-1.05h.02Z"/>
  <path class="cls-2" d="M32.96,20.36l1.15.22c.96.88,1.92,1.75,2.88,2.63.99-.9,1.97-1.8,2.96-2.7.28-.05.55-.1.83-.15l.22.98c-.81.93-1.62,1.86-2.43,2.8.8.74,1.6,1.49,2.4,2.23.19.41.37.82.56,1.22l-1.73.06c-.9-.93-1.79-1.86-2.69-2.78-.74.98-1.49,1.96-2.23,2.95l-1.1.04-.03-.85c.79-.99,1.59-1.99,2.38-2.98-.94-.8-1.88-1.6-2.82-2.41-.12-.42-.23-.83-.35-1.25h0Z"/>
  <path class="cls-1" d="M58.77,43.29c-1.29-.6-3.42-1.86-4.77-4.27-.77-1.39-1-2.65-1.31-4.34-.53-2.89-.83-4.52-.55-6.59.09-.7.33-2.01-.38-3.22-.28-.48-.42-.45-.75-.91-.88-1.22-.42-2.19-.8-5.11-.22-1.71-.52-2.45-.78-2.96-.41-.82-.88-1.34-1.02-1.5-.8-.94-1.86-2.97-2.95-7.82-.22-.09-.89-.35-1.46-.05-.83.44-.93,1.8-.58,2.66.31.78.79.7,1.41,1.56.3.42.49.87.87,3.06.27,1.6.41,2.4.47,3.24.19,2.65-.14,4.74-.42,6.43-.31,1.86-.39,1.49-.59,2.91-.31,2.26-.08,3.06-.21,6-.11,2.45-.28,1.98-.34,4.04-.07,2.63.2,3.57-.1,5.56-.2,1.35-.54,2.42-.79,3.1.3.13.74.33,1.25.63,2,1.18,3.05,2.67,3.69,3.45.91,1.12,2.45,2.59,5.14,3.89,1.66-3.26,3.31-6.53,4.97-9.79v.03Z"/>
  <path class="cls-2" d="M46.72,10.78c-.06-.01-.68-.15-1.07.15-.13.1-.23.24-.23.24-.12.18-.17.35-.18.45.06-.12.24-.45.64-.66.36-.2.7-.19.84-.18Z"/>
  <path class="cls-2" d="M47.41,13.17c.06.41.2.69.31.87.09.14.19.24.24.43.07.26,0,.45-.02.6-.1.6.45.84.79,1.9.07.21.11.45.19.92.15.86.09.97.19,1.49.2,1.01.48.89.52,1.58.03.52-.1.96-.05,1.54.03.34.11.65.12.68,0,.02.04.13.08.25.07.19.21.52.49.92-.1-.27-.22-.65-.33-1.11-.13-.53-.2-.82-.21-1.22-.02-.68.15-.79.08-1.31-.06-.46-.22-.49-.42-1.06-.3-.82-.06-.96-.34-2.11-.15-.61-.22-.92-.45-1.31-.27-.45-.47-.54-.54-.93-.08-.43.13-.57-.02-.97-.07-.2-.15-.24-.37-.64-.12-.22-.21-.41-.26-.53h0Z"/>
  <path class="cls-2" d="M43.43,7.18c-.1.24-.19.58-.19.98,0,.23,0,.79.32,1.31.22.35.46.48.68.66.59.47.81,1.09,1.14,2,.32.87.56,1.93.73,5.06.07,1.34.11,2.01.1,2.46-.05,1.77-.33,2.37-.84,5.71-.2,1.31-.3,1.97-.34,2.66-.08,1.28.04,1.43-.03,3.52-.04,1.2-.06,1.81-.15,2.54-.03.25-.11.75-.17,1.47-.02.21-.05.6-.07,1.02-.03.54-.03,1.3.04,2.22-.17-.71-.23-1.3-.25-1.72-.05-.91.03-1.64.14-2.52.08-.68.13-.84.2-1.34.17-1.19.11-1.89.1-3.23,0-1.97-.02-2.96.11-3.88.15-1.02.28-1.22.67-3.41.13-.77.2-1.17.25-1.63.04-.38.14-1.34.07-3.22-.05-1.5-.18-2.44-.42-4.32-.1-.78-.23-1.63-.75-2.39-.31-.46-.64-.84-.64-.84-.51-.58-.65-.58-.85-.93-.11-.2-.38-.76-.22-1.42.09-.36.27-.61.38-.74v-.02Z"/>
  <path class="cls-1" d="M0,43.96c2.33-2.06,3.86-3.23,4.92-3.93.24-.16.74-.48,1.15-1.09.5-.75.46-1.32.65-2.88.27-2.16.49-2.13.63-3.95.08-1,.08-1.85.08-2.24,0-2.16-.22-2.77.16-3.71.17-.43.52-1.04,1.3-1.66-.03-1.11,0-2.38.13-3.76.14-1.38.37-2.62.62-3.7,1.49-1.71,2.06-3.21,2.3-4.3.16-.72.24-1.59.69-2.91.32-.96.69-1.71.96-2.21.35.05.84.19,1.15.58.41.51.36,1.26-.11,3.17-.43,1.75-.56,1.83-.78,2.81-.34,1.47-.34,2.59-.36,4.58,0,1.38-.01,2.24.17,3.42.22,1.41.49,1.88.79,3.06.55,2.14.21,2.74.46,6.66.05.71.16,2.39.45,4.51.57,4.24.86,6.36.89,6.48.26.99.64,2.16.04,2.97-.29.39-.83.75-1.31,1.05-.49.32-.93.53-1.25.68-3.4,2.35-6.81,4.71-10.21,7.06-1.18-3.56-2.35-7.12-3.53-10.67v-.02Z"/>
  <path class="cls-2" d="M11.64,14.41c-.07,1.02-.33,1.75-.55,2.24-.34.76-.57.85-.74,1.51-.18.71.05.75-.07,2.05-.08.81-.18.9-.19,1.61,0,.37.02.61-.04,1.07-.02.15-.06.51-.18.96-.04.15-.14.52-.4,1.11-.45,1.05-.6,1.01-.74,1.55-.18.74-.03,1.32-.11,1.33-.07,0-.25-.38-.25-.82,0-.54.25-.82.6-1.6.1-.21.33-.72.49-1.33.07-.28.08-.38.27-1.97.09-.76.1-.85.16-1.34.1-.87.15-1.3.15-1.39.04-1.01-.15-1.25.06-1.77.15-.36.35-.51.57-.77.38-.43.81-1.16.95-2.45h.02Z"/>
  <path class="cls-2" d="M12.79,10.28c.14,0,.51-.01.87.22.29.18.43.42.49.53.19.33.21.65.21.81-.07-.21-.23-.61-.61-.98-.37-.36-.75-.51-.96-.58Z"/>
  <path class="cls-2" d="M14.54,7.99c.17.19.39.5.48.91.1.48-.04.85-.18,1.31-.26.85-.02.41-.45,2.13-.37,1.48-.47,1.51-.63,2.31-.08.42-.18,1-.23,2.24-.09,2.19-.16,4.05.37,6.37.34,1.5.52,1.35.71,2.58.15.91.06,1.09.23,4.21.04.8.09,1.67.09,1.67,0,0,.05.85.1,1.53.08,1.16.54,4.78,1.24,9.62-.12-1.89-.26-3.42-.37-4.45-.3-2.92-.47-3.46-.64-5.8-.14-2.05-.22-3.86-.22-3.86-.07-1.69-.06-2.58-.4-3.86-.26-.98-.37-.9-.59-1.86-.26-1.13-.28-2.03-.31-3.44-.02-.85-.03-1.55.04-2.51.14-2.01.55-3.65.68-4.15.26-1.01.32-2.06.67-3.04.09-.26.3-.81.07-1.31-.16-.33-.45-.51-.65-.61h-.01Z"/>
</svg>