<?xml version="1.0" encoding="UTF-8"?>
<svg xmlns="http://www.w3.org/2000/svg" version="1.1" viewBox="0 0 75.6 54.6">
  <!-- Generator: Adobe Illustrator 30.4.0, SVG Export Plug-In . SVG Version: 2.1.4 Build 226)  -->
  <defs>
    <style>
      .st0 {
        fill: #f0f;
      }

      .st1 {
        fill: #fff;
      }

      .st2, .st3 {
        fill: none;
        stroke: #fff;
        stroke-miterlimit: 10;
        stroke-width: .2px;
      }

      .st3 {
        stroke-linecap: round;
      }

      .st4 {
        display: none;
      }
    </style>
  </defs>
  <g id="Layer_2" class="st4">
    <path class="st0" d="M29.8,1.5c-6.1,3.8-7.9,7.4-8.4,9.9-.3,1.5-.2,3.4-.8,10.7,0,.9-.1,1.7-.2,2.2-.6-.2-1.5-.4-2.1,0-.9.8-.3,2.9.1,4.2.8,2.6,1.6,2.6,1.7,4.5.1,1.4-.2,2.2.3,2.6.6.5,1.7.2,2.6,0,0,.9,0,2.3.3,3.9.8,3.7,2.7,6.1,4.8,8.6,2.4,2.9,3.6,4.4,5.4,5.3,3.1,1.5,7.4,1.7,10.6-.3.7-.5,1.2-.9,1.9-1.6,2.4-2.3,3.5-4.6,5.2-8.5,1.1-2.4,1.4-3.4,1.5-4,.4-1.7.4-3.2.4-4.3.3.2,1.1.7,2,.4,1-.3,1.4-1.3,1.7-2.2.5-1.4.3-1.8.5-4,.3-2.7.8-3.3.4-4.5-.3-.8-1-1.7-1.8-1.7s-.8.5-1.1.4c-.9-.2,0-5.6-.2-8.5-.2-3.5-2-8.2-9.5-13.7-2.2-.6-5.6-1.3-9.7-.9-2.3.3-4.2.8-5.7,1.4h0Z"/>
    <path class="st1" d="M30.5,37.1c-.2,0-.4.4-1,.9-.9.9-1.8,1-1.7,1.3,0,0,.2.2.7.2.9.2,1.3.3,1.4.3,1,.2,1.9,1.6,2.4,2.3,1.1,1.5,3,3.2,4.9,3.7,2.2.5,4.2-.7,4.5-.9,2-1.2,4.4-4.3,4.9-5.5,0,0,.2-.4.5-.5.5-.2,1.2.5,1.4.3s0-.5,0-.7-.3-.9-1.2-1.5c-.3-.2-1.1-.7-1.3-.5s.3.6.3,1.3,0,.7-.7,1.5c-1.5,1.8-4.3,2.5-4.8,2.6-1.2.3-2.5.6-4.2.4-3.4-.4-6.2-2.4-6-3.4,0-.2.2-.6.2-1.2s0-.7-.1-.7h-.2Z"/>
    <path class="st1" d="M26.8,20.8c.4.2.8.4,1.3.5.9.9,1.7,1.8,2.6,2.7,1.1-1,2.2-2,3.3-3.1.4,0,.7,0,1.1-.1v1.4c-.9.8-1.9,1.7-2.8,2.5,1,.8,2,1.7,3,2.5v1h-1.3c-.9-.9-1.9-1.8-2.8-2.7l-2.9,2.9c-.2,0-.5.2-.7.3-.1-.4-.3-.7-.4-1.1.8-.9,1.6-1.8,2.4-2.7-.9-1-1.8-2-2.6-3.1v-1h-.2Z"/>
    <path class="st1" d="M41.3,20.4l1.2.2c1,.9,1.9,1.8,2.9,2.6,1-.9,2-1.8,3-2.7.3,0,.5-.1.8-.1l.2,1c-.8.9-1.6,1.9-2.4,2.8.8.7,1.6,1.5,2.4,2.2.2.4.4.8.6,1.2h-1.7c-.9-.9-1.8-1.8-2.7-2.7-.7,1-1.5,2-2.2,3h-1.1v-.8c.8-1,1.6-2,2.4-3-.9-.8-1.9-1.6-2.8-2.4,0-.4-.2-.8-.3-1.2h-.3Z"/>
    <g id="Layer_14_copy">
      <path class="st0" d="M75.6,42.3c-1.3-.6-3.4-1.9-4.8-4.3-.8-1.4-1-2.7-1.3-4.3-.5-2.9-.8-4.5-.6-6.6,0-.7.3-2-.4-3.2-.3-.5-.4-.5-.8-.9-.9-1.2-.4-2.2-.8-5.1-.2-1.7-.5-2.4-.8-3-.4-.8-.9-1.3-1-1.5-.8-.9-1.9-3-3-7.8-.2,0-.9-.3-1.5,0-.8.4-.9,1.8-.6,2.7.3.8.8.7,1.4,1.6.3.4.5.9.9,3.1.3,1.6.4,2.4.5,3.2.2,2.6,0,4.7-.4,6.4-.3,1.9-.4,1.5-.6,2.9-.3,2.3,0,3.1-.2,6,0,2.4-.3,2-.3,4s.2,3.6,0,5.6c-.2,1.3-.5,2.4-.8,3.1.3,0,.7.3,1.2.6,2,1.2,3,2.7,3.7,3.5.9,1.1,2.4,2.6,5.1,3.9,1.7-3.3,3.3-6.5,5-9.8h.1Z"/>
      <path class="st1" d="M63.5,9.8s-.7-.1-1.1.1c0,.1-.2.2-.2.2,0,.2-.2.4-.2.4,0-.1.2-.4.6-.7.4-.2.7-.2.8-.2v.2Z"/>
      <path class="st1" d="M64.2,12.2c0,.4.2.7.3.9,0,.1.2.2.2.4v.6c0,.6.4.8.8,1.9,0,.2,0,.5.2.9.2.9,0,1,.2,1.5.2,1,.5.9.5,1.6v1.5c0,.3,0,.6,0,.7v.2c0,.2.2.5.5.9,0-.3-.2-.6-.3-1.1,0-.5-.2-.8-.2-1.2,0-.7.2-.8,0-1.3,0-.5-.2-.5-.4-1.1-.3-.8,0-1-.3-2.1-.2-.6-.2-.9-.4-1.3-.3-.4-.5-.5-.5-.9s0-.6,0-1c0-.2-.2-.2-.4-.6,0-.2-.2-.4-.3-.5h0Z"/>
      <path class="st0" d="M0,43.9c2.3-2.1,3.9-3.2,4.9-3.9.2-.2.7-.5,1.2-1.1.5-.8.5-1.3.7-2.9.3-2.2.5-2.1.6-4v-2.2c0-2.2-.2-2.8.2-3.7.2-.4.5-1,1.3-1.7,0-1.1,0-2.4.1-3.8s.4-2.6.6-3.7c1.5-1.7,2.1-3.2,2.3-4.3.2-.7.2-1.6.7-2.9.3-1,.7-1.7,1-2.2.4,0,.8.2,1.1.6.4.5.4,1.3-.1,3.2-.4,1.8-.6,1.8-.8,2.8-.3,1.5-.3,2.6-.4,4.6,0,1.4,0,2.2.2,3.4.2,1.4.5,1.9.8,3.1.6,2.1.2,2.7.5,6.7,0,.7.2,2.4.4,4.5.6,4.2.9,6.4.9,6.5.3,1,.6,2.2,0,3-.3.4-.8.8-1.3,1-.5.3-.9.5-1.2.7-3.4,2.3-6.8,4.7-10.2,7.1C2.3,51.1,1.2,47.6,0,44h0Z"/>
      <path class="st1" d="M11.6,14.4c0,1-.3,1.8-.6,2.2-.3.8-.6.9-.7,1.5-.2.7,0,.8,0,2s-.2.9-.2,1.6v1.1c0,.1,0,.5-.2,1s-.1.5-.4,1.1c-.4,1-.6,1-.7,1.5-.2.7,0,1.3-.1,1.3,0,0-.2-.4-.2-.8s.2-.8.6-1.6.3-.7.5-1.3c0-.3,0-.4.3-2,0-.8.1-.9.2-1.3.1-.9.1-1.3.1-1.4,0-1-.1-1.2,0-1.8.1-.4.4-.5.6-.8.4-.4.8-1.2.9-2.4h-.1Z"/>
      <path class="st1" d="M12.8,10.2c.1,0,.5,0,.9.2.3.2.4.4.5.5.2.3.2.6.2.8,0-.2-.2-.6-.6-1-.4-.4-.8-.5-1-.6h0Z"/>
    </g>
  </g>
  <g id="Layer_4">
    <path class="st0" d="M43.2,15.9c-.6-.3-1.5-.7-2.6-.8-.5,0-1.4-.2-2.4,0-1.2.2-2,.8-2.5,1.2-.2,1.1-.3,2-.4,2.7-.1,1.2-.2,1.7-.2,1.9,0,1,0,1.8,0,2,0,1.1.2,1.7.3,2.4.2,1.5,0,2.6,0,3.7-.2,2.2-.5,9.4-.9,19.3,0,.2,0,.6.1,1,.3.6.8.8,1.1,1,.7.3,1.3.3,2.5.3.7,0,1.5,0,2.4-.3.7-.2,1.6-.4,2.4-.9,1.3-.8,2-2.1,2.3-2.9-.6-.1-1.1-.3-1.7-.4.5-.2,1.1-.3,1.6-.5,0-2.2-.2-3.5-.5-4.3,0-.2-.3-.8-.4-1.6-.1-.8,0-1.5,0-1.7.2-1.5-.1-3.3-.3-5-.2-1.6-.3-4.2-.3-8.1.5-.4,1-.7,1.3-.8.8-.4,1.3-.5,2-1,.3-.2.4-.4.6-.5,0-.2,0-.7-.1-1.2,0-.2-.3-.8-.9-1.2-.5-.4-1-.4-1.3-.4,0,.1-.1.3-.2.6-.2.4-.4.6-.5.8-.4.4-.8.6-1.1.7,0-.4,0-.9,0-1.6,0-1.4,0-1.8,0-2.6,0-.5-.1-1.2-.4-2Z"/>
    <path class="st3" d="M44.5,46.8c-.2.5-.5,1-.9,1.3-1,.7-2,1.3-3.2,1.6-1.4.2-2.9.4-4.2,0-.5-.3-.7-1-.5-1.5.2-.5.6-.7,1-1,.5-.4,1-.8,1.6-1,1.3-.6,2.8-.5,4.1-.6.6,0,1.4,0,1.7.6M43.1,46.6c-.5-.7-1.4-.2-2.2-.2-1.1,0-2.5.4-3.4,1.3-.3.2-.7.6-.3,1,.8.4,2,.5,2.8.2,1.2-.3,3.1-.8,2.9-2.1M41.6,47.2c-.4,0-1,0-1.4,0-.4.1-.7.3-1.2.6-.1.1-.3.2-.3.4,0,.1.3.2.4.3.9,0,2.3-.1,2.6-1.1M40.4,47.6c-.1,0-.4.1-.5.2,0,0,0,.2,0,.3,0,0,.2,0,.3,0,.1,0,.2-.1.3-.2M45.4,45.7c-.4-.2-1-.5-1.4-.7-.5,0-1.3-.3-1.8-.3-.8,0-1.6,0-2.4.1-.9,0-2,.5-2.8.8-.2,0-.1,0-.4.2-.4.4-.9.6-1.2,1-.3.5-.7,1-.9,1.5M37.7,38.4c0,.2,0,.9,0,1.2,0,.2-.2.4-.2.5,0,.1,0,.6,0,.8,0,.4-.1.8-.2,1.2,0,.1,0,.5,0,.6,0,.1.2.5.2.7,0,.2-.1.6,0,.9,0,.3,0,1,0,1M45,45.5v-.6s0-.6,0-.6M44.1,33.1c-.2,1.6,0,3.2,0,4.8,0,.7,0,1.2,0,1.8,0,.4.2.8,0,1.2-.1.2-.3.4-.1.6,0,.1,0,.7,0,.8,0,.2-.2.7-.3.9,0,.2,0,.5,0,.8,0,.4.1.6.2,1M42,44.7c.2-.9.6-1.8.8-2.7,0-.3,0-1,0-1.2,0-.6,0-1.4,0-2-.1-1-.2-2.1-.3-3.1,0-.6.2-1.3.2-1.9.2-1.2.2-2.4.2-3.6,0-.5,0-1.2.1-1.7.1-.6,0-1.3,0-1.9M41.5,29.1l.8-.8.3-.6v-.6s-.2-.3-.2-.3M41.8,29.1c-.2.3-.6.9-.7,1.2-.1.5-.3.9-.5,1.4,0,.6,0,1.4,0,2,.1.3.1.6.1.9,0,.4,0,.8,0,1.2,0,.2.1.6,0,.8-.1.5,0,1,0,1.5,0,.5,0,1,0,1.5.3,1.6.2,3.6,0,5.1M41.2,41.6c.2-.5.3-1.2.3-1.8,0-.3,0-.8,0-1.2,0-.4.2-1.1,0-1.5,0-.2-.1-.3-.1-.5,0-.7,0-1.7,0-2.5,0-1.1-.1-2.3-.2-3.4M39.4,32.4c0,.2-.2.3-.1.6,0,.2.1.3,0,.4-.2,1.1-.4,2.3-.4,3.4,0,.3,0,.7-.2,1.1,0,.3-.2.7-.2,1,0,.5,0,1,0,1.5,0,.5,0,1.3,0,1.8,0,.2.3.6.3.9,0,.3,0,.8,0,1,0,.2.2.7.2.9M39.8,22.5l.6.4h.6s1-.2,1-.2l.9-.3.7-.3M40.4,22.4s-.3-.2-.4-.3c0,0-.3,0-.4,0,0,0-.2.1-.3.2,0,0,0,.5,0,.6.2.4.3,1,.4,1.5.1.7,0,1.4.2,2.1.1.2.2.8.4,1,0,.1.3.4.3.5,0,0,.3.1.4.2,0,0,.1,0,.2,0,.2,0,.5-.5.6-.6M40.5,24.6h.5M40.6,25.7v.6c-.1,0-.1.4-.1.4M41,26.9l.2.3h.2M40.8,23.5h.8c0,0,.7-.1.7-.1l1-.4,1-.5.5-.4M44,23.3l.7-.4.4-.3M43.9,23.8l-.4.5-.5.2-.6.2-.5.4-.4.5M46,23.4l-.7.4-.8.5-.8.5h-.4M43.9,25.1l-.7.4-.6.7-.7.7M45.4,20.2v.8c0,0,.3,1,.3,1l.5.7.5.3h.9M46.6,20.7h-.2c0-.1-.1-.3-.1-.3h-.2c0,0-.1.4-.1.4l.2.8.3.5.2.2h.2s.2-.3.2-.3M46.9,21.4l-.3-.3h-.2c0,0,0,.4,0,.4l.2.2.2-.2M35.5,46.9c-.1-.7.2-1.3,0-2-.2-.6-.5-1.2-.5-1.8,0-.4.2-1,.3-1.3,0-.6,0-1.1,0-1.7,0-.3.1-.8.2-1.2,0-.4,0-1.1.1-1.4,0-.3.2-.6.3-.9,0-.2,0-.5,0-.8,0-.5.2-1,.1-1.6,0-.5-.1-.9-.1-1.4,0-.8,0-1.4-.2-2.1,0-.9,0-1.9-.3-2.8M42.7,15.7c0,.6-.1,1.3,0,1.8-.1.5-.2,1.3-.3,1.8,0,.5,0,1.1.2,1.6,0,.3,0,.9,0,1.1M41.4,15.3c0,.3.1.6.1.9,0,.2,0,.4,0,.6,0,.7,0,1.4,0,2.1,0,.1,0,.3,0,.5,0,.2,0,.6,0,.8,0,.1,0,.3.1.4M40,15s.1.4.2.5c0,.1,0,.3,0,.4.1.7-.1,1.6-.1,2.3,0,1,0,2.3.6,3.2.1.2.4.4.5.6l.2.3M38.6,19.3v-.7s.3-.9.3-.9l.2-.8v-.2c0,0,.1-.5.1-.5v-.9c0,0,.2-.5.2-.5M37.9,20v-.7s0-.9,0-.9v-1s-.2-.3-.2-.3v-.5c-.1,0,0-.7,0-.7v-.4s-.2-.3-.2-.3M39.3,16.3c.3.8,0,1.8-.1,2.6,0,.2-.2.9-.3,1.2,0,.2-.2.4-.2.6,0,.6,0,1.1,0,1.7,0,.4,0,.8,0,1.2,0,.9,0,1.7.2,2.6,0,1.1.2,2.2.2,3.3,0,.7,0,1.5,0,2.2,0,.2,0,.3,0,.5,0,.3-.3.6-.3.9M36.4,46.1c0-.9-.2-1.9-.2-2.7,0-1.1.3-2.1.3-3.2.2-1.3.1-2.8.4-4.1.1-.7.3-1.4.3-2.1,0-.6.2-1.1.1-1.7,0-.8-.2-1.5-.2-2.2,0-1.1.1-2,.3-3.1,0-1.1-.4-2-.2-3.2,0-.7.2-1.4.2-2,0-.8-.1-1.8-.2-2.6,0-.9-.6-1.8-.7-2.7,0-.2,0-.5,0-.6,0-.1-.2.3-.2.6,0,1,.3,2.1.3,3.1,0,1.5-.1,3.1-.3,4.6,0,1.3.1,2.7.3,4.1.1,1.2.3,2.5.7,3.6"/>
    <path class="st2" d="M44.9,32.1"/>
    <path class="st0" d="M38.5,2.9c-.4.7-.9,1.7-1.5,2.9-.2,0-.5-.1-.8,0-.6.1-1.2.7-1.1,1.2,0,.4.6.5.6.9,0,.2-.1.3-.5.8-.2.3-.3.5-.4.8-.8,1.7-.3,1.8-1,3-.6,1-1.2,1.5-1.7,2.8-.2.4-.3.8-.3,1.1.2.2.8.7,1.8.9.9.2,1.6,0,1.9-.2,0-.2,0-.6.2-.9.2-.3.5-.4,1.2-.8.8-.4,1.6-.5,2.3-.5,1.2,0,2.1.2,2.5.3.8.2,1.4.5,1.8.8,0,.4.2.7.3,1.1.2,0,1.1.3,1.5,0,.3-.3,0-.8,0-1.1-.3-2-1.3-3-1.9-4.9-.5-1.6,0-1.5-.7-3.2-.2-.7-.3-.6-1.6-3.1-.9-1.7-1.2-2.4-1.6-2.4-.3,0-.4.3-.7.8Z"/>
    <path class="st3" d="M41.7,12.6l-.5.5.5-.5Z"/>
    <polyline class="st3" points="35.3 7.5 35.7 7.9 35.8 8.4 36 8.9"/>
    <path class="st3" d="M35.5,6.6c0-.2,0-.4.3-.5.4-.1.8-.2,1.1,0,0,.3-.6.7-.9.6"/>
    <polyline class="st3" points="37 5.4 37.1 5.9 37.3 6.3 37.6 6.7"/>
    <path class="st3" d="M41.3,5.4"/>
    <path class="st3" d="M41.6,5.6c.2,1.4,1.1,2.7.8,4.1-.3.9,0,2.1-.7,2.9"/>
    <path class="st3" d="M36.3,7.8c0,.3.4.8.4,1.2,0,.5,0,.6-.3,1-.1.2.1.4,0,.6l-.2.8"/>
    <polyline class="st3" points="37.1 6.8 37.1 7.5 37.4 7.8 37.6 8.2 37.6 8.7"/>
    <path class="st3" d="M38.4,7.9c-.6-.8.2-1.6.4-2.3-.1-.6-.3-.9-.3-1.6,0-.6.2-1.3.2-1.9"/>
    <path class="st3" d="M34.3,8.9c.4.7,1.1,1.5.9,2.4-.1.4-.4.7-.3,1.2,0,.5-.3.8-.5,1.2s0,.1,0,.2l-.2.7-.3.5"/>
    <path class="st3" d="M39.5,6.2c.2.3,0,.7,0,1.1,0,.4,0,.9-.1,1.3-.2.5-.6.9-.8,1.3-.4.7-.5,1.6-.6,2.4,0,.4-.3.8-.3,1.2v.7"/>
    <path class="st3" d="M39.1,11.9c.1.2.5.5.3.7-.1.3-.3.6-.3.9v.7"/>
    <polyline class="st3" points="31.7 16.3 32.2 15.6 33.4 15 36.1 14.4 38.7 14.1 40.6 14.3 43.2 15.2 44.8 16.1 45.2 16.8"/>
    <polyline class="st3" points="35.3 16.7 34.5 16.8 33.5 16.4 33.6 15.7 34.4 15.5 35.9 15 38.3 14.6 40.3 14.8 40.8 15"/>
    <polyline class="st3" points="35.5 16.3 34.7 16.3 35 15.8 35.9 15.7 36.4 15.6"/>
    <polyline class="st3" points="43.5 16.7 43.9 16.8 44.4 16.8 44.5 16.5 44 16.3 43.4 16.1"/>
    <path class="st3" d="M41.2,13.2l-.4.6v.6c0,0,.4-1.6.4-1.6,0-.7.2-1.3,0-1.9-.2-1-.3-2-.1-3,0-.4-.5-.9,0-1.2"/>
    <polyline class="st3" points="34.6 11.2 34.5 11.9 34.2 12.7 34.2 13.2 34.4 13.4"/>
    <polyline class="st3" points="43.5 12.7 43.5 13.2 43.8 14 43.9 14.5 44.3 14.8 44.5 15.3 44.4 15.8"/>
    <polyline class="st3" points="42.9 15.1 42.7 14.4 42.9 14"/>
  </g>
</svg>